<svg width="16" height="18" viewBox="0 0 16 18" fill="none" xmlns="http://www.w3.org/2000/svg">
<path d="M15.75 14H13.25V11.5H12V14H9.5V15.25H12V17.75H13.25V15.25H15.75V14Z" fill="black"/>
<path d="M7 16.5002H2V1.50021H7V5.25021C7.00099 5.58143 7.133 5.8988 7.36721 6.133C7.60142 6.36721 7.91878 6.49922 8.25 6.50021H12V9.00021H13.25V5.25021C13.2522 5.16807 13.2366 5.08643 13.2042 5.0109C13.1719 4.93538 13.1235 4.86776 13.0625 4.81271L8.6875 0.437712C8.63248 0.376678 8.56486 0.328307 8.48933 0.295936C8.4138 0.263565 8.33215 0.247965 8.25 0.250213H2C1.66878 0.251202 1.35142 0.383215 1.11721 0.617422C0.883003 0.851628 0.750989 1.169 0.75 1.50021V16.5002C0.750989 16.8314 0.883003 17.1488 1.11721 17.383C1.35142 17.6172 1.66878 17.7492 2 17.7502H7V16.5002ZM8.25 1.75021L11.75 5.25021H8.25V1.75021Z" fill="black"/>
</svg>
