<svg width="23" height="24" viewBox="0 0 23 24" fill="none" xmlns="http://www.w3.org/2000/svg">
<path d="M2.99984 0.333008H13.4998C14.1187 0.333008 14.7122 0.57884 15.1498 1.01643C15.5873 1.45401 15.8332 2.0475 15.8332 2.66634V4.99967H13.4998V2.66634H2.99984V21.333H13.4998V18.9997H15.8332V21.333C15.8332 21.9518 15.5873 22.5453 15.1498 22.9829C14.7122 23.4205 14.1187 23.6663 13.4998 23.6663H2.99984C2.381 23.6663 1.78751 23.4205 1.34992 22.9829C0.912336 22.5453 0.666504 21.9518 0.666504 21.333V2.66634C0.666504 2.0475 0.912336 1.45401 1.34992 1.01643C1.78751 0.57884 2.381 0.333008 2.99984 0.333008Z" fill="#99877D"/>
<path d="M14.7717 16.1887L16.4167 17.8337L22.25 12.0003L16.4167 6.16699L14.7717 7.81199L17.7817 10.8337H6.5V13.167H17.7817L14.7717 16.1887Z" fill="#99877D"/>
</svg>
