<svg width="22" height="22" viewBox="0 0 22 22" fill="none" xmlns="http://www.w3.org/2000/svg">
<rect width="21.5277" height="21.5277" rx="3.91413" fill="#FECAEF"/>
<path d="M15.6674 9.99967H15.3341V7.99967C15.3341 7.91127 15.299 7.82648 15.2365 7.76397C15.174 7.70146 15.0892 7.66634 15.0008 7.66634H7.00078C6.92185 7.66763 6.84502 7.64086 6.78398 7.59081C6.72294 7.54075 6.68164 7.47066 6.66744 7.39301V7.27301C6.68164 7.19536 6.72294 7.12526 6.78398 7.07521C6.84502 7.02515 6.92185 6.99839 7.00078 6.99967H14.8608C14.9492 6.99967 15.034 6.96456 15.0965 6.90204C15.159 6.83953 15.1941 6.75475 15.1941 6.66634C15.1941 6.57794 15.159 6.49315 15.0965 6.43064C15.034 6.36813 14.9492 6.33301 14.8608 6.33301H7.00078C6.73556 6.33301 6.48121 6.43836 6.29367 6.6259C6.10614 6.81344 6.00078 7.06779 6.00078 7.33301C5.99844 7.37297 5.99844 7.41304 6.00078 7.45301V14.3097C6.00209 14.4891 6.03873 14.6666 6.10863 14.8319C6.17852 14.9972 6.28029 15.1472 6.40813 15.2731C6.53596 15.3991 6.68736 15.4987 6.85368 15.5661C7.01999 15.6336 7.19797 15.6677 7.37744 15.6663H15.0008C15.0892 15.6663 15.174 15.6312 15.2365 15.5687C15.299 15.5062 15.3341 15.4214 15.3341 15.333V13.333H15.6674C15.7559 13.333 15.8406 13.2979 15.9031 13.2354C15.9657 13.1729 16.0008 13.0881 16.0008 12.9997V10.333C16.0008 10.2446 15.9657 10.1598 15.9031 10.0973C15.8406 10.0348 15.7559 9.99967 15.6674 9.99967ZM14.6674 14.9997H7.37744C7.19205 15.0015 7.01344 14.93 6.88048 14.8008C6.74751 14.6715 6.67095 14.495 6.66744 14.3097V8.29301C6.77564 8.32436 6.88823 8.33787 7.00078 8.33301H14.6674V9.99967H12.3341C11.8921 9.99967 11.4682 10.1753 11.1556 10.4878C10.843 10.8004 10.6674 11.2243 10.6674 11.6663C10.6674 12.1084 10.843 12.5323 11.1556 12.8449C11.4682 13.1574 11.8921 13.333 12.3341 13.333H14.6674V14.9997ZM15.3341 12.6663H12.3341C12.0689 12.6663 11.8145 12.561 11.627 12.3734C11.4395 12.1859 11.3341 11.9316 11.3341 11.6663C11.3341 11.4011 11.4395 11.1468 11.627 10.9592C11.8145 10.7717 12.0689 10.6663 12.3341 10.6663H15.3341V12.6663Z" fill="#63194E"/>
<path d="M12.6699 12.166C12.9461 12.166 13.1699 11.9422 13.1699 11.666C13.1699 11.3899 12.9461 11.166 12.6699 11.166C12.3938 11.166 12.1699 11.3899 12.1699 11.666C12.1699 11.9422 12.3938 12.166 12.6699 12.166Z" fill="#63194E"/>
</svg>
