<svg width="240" height="63" viewBox="0 0 240 63" fill="none" xmlns="http://www.w3.org/2000/svg">
<path d="M35.5903 34.544C36.7895 33.5025 37.5154 32.0508 37.5154 30.2204C37.5154 26.4017 34.391 23.9085 30.5408 23.9085H21.8936V46H31.172C35.1169 46 38.3044 43.4437 38.3044 39.5304C38.3044 37.2897 37.2313 35.5855 35.5903 34.544ZM30.5408 28.6424C31.7085 28.6424 32.4659 29.463 32.4659 30.5991C32.4659 31.7352 31.6769 32.5558 30.5408 32.5558H26.943V28.6424H30.5408ZM31.172 41.2661H26.943V37.0372H31.172C32.4343 37.0372 33.2549 37.9208 33.2549 39.1516C33.2549 40.3825 32.4343 41.2661 31.172 41.2661ZM41.7635 23.9085V46H46.813V23.9085H41.7635ZM56.605 41.1399V37.2265H64.4948V32.4295H56.605V28.7687H65.2838V23.9085H51.5555V46H65.4416V41.1399H56.605ZM81.5454 23.9085V35.901L73.0244 23.9085H69.2373V46H74.2868V34.0075L82.8078 46H86.5949V23.9085H81.5454ZM96.6283 46H103.066L110.262 23.9085H104.739L99.8473 40.1615L94.9556 23.9085H89.4328L96.6283 46ZM118.157 41.1399V37.2265H126.046V32.4295H118.157V28.7687H126.835V23.9085H113.107V46H126.993V41.1399H118.157ZM143.097 23.9085V35.901L134.576 23.9085H130.789V46H135.838V34.0075L144.359 46H148.146V23.9085H143.097ZM152.878 23.9085V46H157.927V23.9085H152.878ZM171.506 23.9085H162.67V46H171.506C177.597 46 182.237 41.203 182.237 34.9543C182.237 28.7055 177.597 23.9085 171.506 23.9085ZM171.506 41.1399H167.719V28.7687H171.506C174.978 28.7687 177.376 31.1672 177.376 34.9543C177.376 38.7414 174.978 41.1399 171.506 41.1399ZM191.072 41.1399V37.2265H198.962V32.4295H191.072V28.7687H199.751V23.9085H186.022V46H199.909V41.1399H191.072ZM211.436 46.4418C216.233 46.4418 219.642 43.9171 219.642 39.6566C219.642 34.9858 215.886 33.8181 212.541 32.8082C209.101 31.7668 208.564 31.0725 208.564 30.0626C208.564 29.1789 209.353 28.39 210.931 28.39C212.951 28.39 213.993 29.3683 214.75 30.9462L219.011 28.4531C217.401 25.2025 214.561 23.4667 210.931 23.4667C207.113 23.4667 203.515 25.9283 203.515 30.1888C203.515 34.4178 206.734 35.9957 210.016 36.9109C213.33 37.8262 214.592 38.3627 214.592 39.7197C214.592 40.5718 213.993 41.5186 211.594 41.5186C209.101 41.5186 207.744 40.2878 206.955 38.4573L202.6 40.9821C203.831 44.2327 206.797 46.4418 211.436 46.4418Z" fill="#FFFCFC"/>
<path d="M6.31185 19.8265C3.96745 19.8265 2.02881 21.7651 2.02881 24.1095C2.02881 26.4539 3.96745 28.3926 6.31185 28.3926C8.65625 28.3926 10.5949 26.4539 10.5949 24.1095C10.5949 21.7651 8.65625 19.8265 6.31185 19.8265ZM3.60677 31.7288L2.25423 43V52.0169H10.3695V43L9.01692 31.7288H3.60677Z" fill="#FFFCFC"/>
<path d="M230.607 39.7288H236.017L237.369 28.4577V19.4408H229.254V28.4577L230.607 39.7288ZM233.312 51.6312C235.656 51.6312 237.595 49.6925 237.595 47.3481C237.595 45.0037 235.656 43.0651 233.312 43.0651C230.967 43.0651 229.029 45.0037 229.029 47.3481C229.029 49.6925 230.967 51.6312 233.312 51.6312Z" fill="#FFFCFC"/>
</svg>
