<svg width="30" height="26" viewBox="0 0 30 26" fill="none" xmlns="http://www.w3.org/2000/svg">
<path d="M28.8162 18.4324H8.90202L9.90191 16.4696L26.5154 16.4406C27.0772 16.4406 27.5588 16.0538 27.6591 15.5188L29.9599 3.10698C30.0201 2.78145 29.9298 2.44626 29.7091 2.19164C29.6 2.06634 29.4639 1.9654 29.3103 1.89583C29.1567 1.82626 28.9892 1.78973 28.8195 1.78877L7.68476 1.72109L7.50418 0.902442C7.39048 0.380315 6.90224 0 6.34712 0H1.18047C0.86739 0 0.567133 0.119867 0.345752 0.333231C0.124371 0.546595 0 0.835979 0 1.13772C0 1.43946 0.124371 1.72885 0.345752 1.94221C0.567133 2.15558 0.86739 2.27544 1.18047 2.27544H5.3907L6.17991 5.89166L8.12284 14.958L5.62145 18.8933C5.49155 19.0622 5.4133 19.2629 5.39558 19.4725C5.37785 19.6821 5.42134 19.8923 5.52112 20.0793C5.72177 20.4629 6.12641 20.7046 6.57452 20.7046H8.67462C8.2269 21.2777 7.98508 21.9758 7.98573 22.6932C7.98573 24.5174 9.52402 26 11.4168 26C13.3096 26 14.8478 24.5174 14.8478 22.6932C14.8478 21.9745 14.6004 21.2751 14.159 20.7046H19.5463C19.0986 21.2777 18.8568 21.9758 18.8574 22.6932C18.8574 24.5174 20.3957 26 22.2885 26C24.1813 26 25.7195 24.5174 25.7195 22.6932C25.7195 21.9745 25.4721 21.2751 25.0307 20.7046H28.8195C29.4683 20.7046 30 20.1954 30 19.5669C29.9981 19.2654 29.8725 18.977 29.6507 18.7645C29.4289 18.5519 29.1289 18.4325 28.8162 18.4324ZM8.17635 3.9643L27.4317 4.02554L25.5456 14.2038L10.4202 14.2296L8.17635 3.9643ZM11.4168 23.7117C10.8349 23.7117 10.36 23.254 10.36 22.6932C10.36 22.1324 10.8349 21.6747 11.4168 21.6747C11.9987 21.6747 12.4735 22.1324 12.4735 22.6932C12.4735 22.9633 12.3622 23.2224 12.164 23.4134C11.9658 23.6044 11.6971 23.7117 11.4168 23.7117ZM22.2885 23.7117C21.7066 23.7117 21.2317 23.254 21.2317 22.6932C21.2317 22.1324 21.7066 21.6747 22.2885 21.6747C22.8704 21.6747 23.3452 22.1324 23.3452 22.6932C23.3452 22.9633 23.2339 23.2224 23.0357 23.4134C22.8375 23.6044 22.5688 23.7117 22.2885 23.7117Z" fill="#99877D"/>
</svg>
