<svg width="13" height="13" viewBox="0 0 13 13" fill="none" xmlns="http://www.w3.org/2000/svg">
<mask id="path-1-inside-1" fill="white">
<path fill-rule="evenodd" clip-rule="evenodd" d="M12.7536 1.43505C12.8316 1.35708 12.8936 1.26451 12.9359 1.16261C12.9781 1.06071 12.9999 0.951473 13 0.841148C13.0001 0.730822 12.9784 0.621564 12.9362 0.51961C12.8941 0.417657 12.8323 0.325005 12.7543 0.246945C12.6763 0.168885 12.5838 0.106946 12.4819 0.064664C12.38 0.0223816 12.2707 0.000584199 12.1604 0.00051639C12.0501 0.00044858 11.9408 0.0221117 11.8389 0.0642687C11.7369 0.106426 11.6443 0.168251 11.5662 0.246215L6.49989 5.31263L1.43502 0.246215C1.27738 0.0885661 1.06356 -1.6611e-09 0.840618 0C0.617672 1.6611e-09 0.403857 0.0885661 0.246211 0.246215C0.0885647 0.403864 1.66108e-09 0.617682 0 0.840631C-1.66107e-09 1.06358 0.0885647 1.2774 0.246211 1.43505L5.31254 6.5L0.246211 11.565C0.168153 11.643 0.106233 11.7357 0.0639881 11.8377C0.0217431 11.9397 0 12.049 0 12.1594C0 12.2698 0.0217431 12.3791 0.0639881 12.4811C0.106233 12.5831 0.168153 12.6757 0.246211 12.7538C0.403857 12.9114 0.617672 13 0.840618 13C0.951009 13 1.06032 12.9783 1.16231 12.936C1.2643 12.8938 1.35697 12.8318 1.43502 12.7538L6.49989 7.68737L11.5662 12.7538C11.7239 12.9112 11.9376 12.9996 12.1604 12.9995C12.3832 12.9993 12.5969 12.9107 12.7543 12.7531C12.9118 12.5954 13.0001 12.3817 13 12.1589C12.9999 11.936 12.9112 11.7224 12.7536 11.565L7.68724 6.5L12.7536 1.43505Z"/>
</mask>
<path d="M12.7536 1.43505L9.92686 -1.39509L9.92553 -1.39376L12.7536 1.43505ZM11.5662 0.246215L8.73951 -2.58393L8.73777 -2.58219L11.5662 0.246215ZM6.49989 5.31263L3.67104 8.14062L6.49949 10.9699L9.32834 8.14103L6.49989 5.31263ZM1.43502 0.246215L4.26388 -2.58178L4.26347 -2.58219L1.43502 0.246215ZM0.840618 0V4V0ZM0 0.840631H-4H0ZM0.246211 1.43505L-2.58224 4.26345L-2.58183 4.26386L0.246211 1.43505ZM5.31254 6.5L8.14058 9.32881L10.9702 6.5L8.14058 3.67119L5.31254 6.5ZM0.246211 11.565L-2.58183 8.73614L-2.58224 8.73655L0.246211 11.565ZM1.43502 12.7538L4.26347 15.5822L4.26388 15.5818L1.43502 12.7538ZM6.49989 7.68737L9.32834 4.85897L6.49949 2.03006L3.67104 4.85937L6.49989 7.68737ZM11.5662 12.7538L8.73777 15.5822L8.73951 15.5839L11.5662 12.7538ZM12.7536 11.565L9.92553 14.3938L9.92686 14.3951L12.7536 11.565ZM7.68724 6.5L4.8592 3.67119L2.02962 6.5L4.8592 9.32881L7.68724 6.5ZM15.5803 4.26519C16.03 3.81602 16.3868 3.28267 16.6304 2.69559L9.24127 -0.370377C9.4003 -0.753652 9.63326 -1.10185 9.92686 -1.39509L15.5803 4.26519ZM16.6304 2.69559C16.874 2.10852 16.9996 1.47922 17 0.843606L9 0.838689C9.00025 0.423728 9.08224 0.0128882 9.24127 -0.370377L16.6304 2.69559ZM17 0.843606C17.0004 0.208002 16.8756 -0.421456 16.6327 -1.00883L9.23978 2.04805C9.08122 1.66458 8.99974 1.25364 9 0.838689L17 0.843606ZM16.6327 -1.00883C16.3899 -1.59616 16.0337 -2.12996 15.5845 -2.57972L9.92412 3.07361C9.63085 2.77997 9.39832 2.43148 9.23978 2.04805L16.6327 -1.00883ZM15.5845 -2.57972C15.1353 -3.02946 14.602 -3.38631 14.0149 -3.6299L10.9488 3.75923C10.5656 3.6002 10.2174 3.36723 9.92412 3.07361L15.5845 -2.57972ZM14.0149 -3.6299C13.4278 -3.87351 12.7985 -3.99909 12.1629 -3.99948L12.158 4.00052C11.743 4.00026 11.3321 3.91827 10.9488 3.75923L14.0149 -3.6299ZM12.1629 -3.99948C11.5273 -3.99987 10.8978 -3.87507 10.3104 -3.63218L13.3674 3.76072C12.9839 3.91929 12.5729 4.00077 12.158 4.00052L12.1629 -3.99948ZM10.3104 -3.63218C9.72301 -3.3893 9.18922 -3.0331 8.73951 -2.58393L14.3929 3.07636C14.0993 3.3696 13.7508 3.60215 13.3674 3.76072L10.3104 -3.63218ZM8.73777 -2.58219L3.67144 2.48422L9.32834 8.14103L14.3947 3.07462L8.73777 -2.58219ZM9.32875 2.48463L4.26388 -2.58178L-1.39383 3.07421L3.67104 8.14062L9.32875 2.48463ZM4.26347 -2.58219C3.35569 -3.48999 2.12445 -4 0.840618 -4L0.840618 4C0.00267848 4 -0.80093 3.66712 -1.39343 3.07462L4.26347 -2.58219ZM0.840618 -4C-0.443213 -4 -1.67445 -3.48999 -2.58224 -2.58219L3.07466 3.07462C2.48217 3.66712 1.67856 4 0.840618 4L0.840618 -4ZM-2.58224 -2.58219C-3.49003 -1.67439 -4 -0.443161 -4 0.840631L4 0.840631C4 1.67852 3.66715 2.48212 3.07466 3.07462L-2.58224 -2.58219ZM-4 0.840631C-4 2.12442 -3.49003 3.35565 -2.58224 4.26345L3.07466 -1.39336C3.66715 -0.800853 4 0.00273799 4 0.840631L-4 0.840631ZM-2.58183 4.26386L2.4845 9.32881L8.14058 3.67119L3.07425 -1.39376L-2.58183 4.26386ZM2.4845 3.67119L-2.58183 8.73614L3.07425 14.3938L8.14058 9.32881L2.4845 3.67119ZM-2.58224 8.73655C-3.03172 9.18604 -3.38828 9.71966 -3.63154 10.307L3.75952 13.3684C3.60074 13.7517 3.36803 14.1 3.07466 14.3934L-2.58224 8.73655ZM-3.63154 10.307C-3.8748 10.8942 -4 11.5237 -4 12.1594H4C4 12.5743 3.91828 12.9851 3.75952 13.3684L-3.63154 10.307ZM-4 12.1594C-4 12.795 -3.8748 13.4245 -3.63154 14.0118L3.75952 10.9503C3.91828 11.3337 4 11.7445 4 12.1594H-4ZM-3.63154 14.0118C-3.38828 14.5991 -3.03173 15.1327 -2.58224 15.5822L3.07466 9.92538C3.36803 10.2188 3.60075 10.567 3.75952 10.9503L-3.63154 14.0118ZM-2.58224 15.5822C-1.67447 16.49 -0.443247 17 0.840618 17V9C1.67859 9 2.48219 9.3329 3.07466 9.92538L-2.58224 15.5822ZM0.840618 17C1.47637 17 2.10583 16.8748 2.69306 16.6315L-0.368447 9.2405C0.0148122 9.08175 0.425648 9 0.840618 9V17ZM2.69306 16.6315C3.28036 16.3882 3.81398 16.0317 4.26347 15.5822L-1.39343 9.92538C-1.10005 9.632 -0.751764 9.39928 -0.368447 9.2405L2.69306 16.6315ZM4.26388 15.5818L9.32875 10.5154L3.67104 4.85937L-1.39383 9.92579L4.26388 15.5818ZM3.67144 10.5158L8.73777 15.5822L14.3947 9.92538L9.32834 4.85897L3.67144 10.5158ZM8.73951 15.5839C9.64775 16.4911 10.8792 17.0003 12.1629 16.9995L12.158 8.99948C12.996 8.99897 13.8 9.33141 14.3929 9.92364L8.73951 15.5839ZM12.1629 16.9995C13.4466 16.9987 14.6774 16.488 15.5845 15.5797L9.92412 9.92639C10.5163 9.33342 11.3199 9 12.158 8.99948L12.1629 16.9995ZM15.5845 15.5797C16.4916 14.6714 17.0008 13.44 17 12.1564L9 12.1613C8.99949 11.3233 9.33188 10.5194 9.92412 9.92639L15.5845 15.5797ZM17 12.1564C16.9992 10.8727 16.4885 9.64195 15.5803 8.73481L9.92686 14.3951C9.33391 13.8029 9.00051 12.9993 9 12.1613L17 12.1564ZM15.5816 8.73614L10.5153 3.67119L4.8592 9.32881L9.92553 14.3938L15.5816 8.73614ZM10.5153 9.32881L15.5816 4.26386L9.92553 -1.39376L4.8592 3.67119L10.5153 9.32881Z" fill="white" mask="url(#path-1-inside-1)"/>
</svg>
