<svg width="19" height="19" viewBox="0 0 19 19" fill="none" xmlns="http://www.w3.org/2000/svg">
<mask id="path-1-inside-1_566_654" fill="white">
<path fill-rule="evenodd" clip-rule="evenodd" d="M18.6398 2.09738C18.7539 1.98343 18.8444 1.84813 18.9062 1.69919C18.968 1.55026 18.9999 1.39061 19 1.22937C19.0001 1.06812 18.9684 0.908439 18.9068 0.759431C18.8452 0.610422 18.7549 0.475008 18.6409 0.36092C18.527 0.246833 18.3917 0.156306 18.2427 0.0945088C18.0938 0.0327115 17.9342 0.000853829 17.7729 0.000754723C17.6117 0.000655618 17.452 0.032317 17.303 0.0939312C17.154 0.155545 17.0186 0.245906 16.9045 0.359853L9.49984 7.76461L2.09734 0.359853C1.86694 0.129443 1.55444 -2.42776e-09 1.2286 0C0.902751 2.42776e-09 0.590253 0.129443 0.359847 0.359853C0.129441 0.590263 2.42773e-09 0.902766 0 1.22862C-2.42772e-09 1.55446 0.129441 1.86697 0.359847 2.09738L7.76448 9.5L0.359847 16.9026C0.245761 17.0167 0.155264 17.1521 0.093521 17.3012C0.0317784 17.4503 0 17.61 0 17.7714C0 17.9327 0.0317784 18.0925 0.093521 18.2416C0.155264 18.3906 0.245761 18.5261 0.359847 18.6401C0.590253 18.8706 0.902751 19 1.2286 19C1.38994 19 1.5497 18.9682 1.69876 18.9065C1.84782 18.8447 1.98326 18.7542 2.09734 18.6401L9.49984 11.2354L16.9045 18.6401C17.1349 18.8703 17.4473 18.9994 17.7729 18.9992C18.0986 18.999 18.4108 18.8695 18.6409 18.6391C18.871 18.4087 19.0002 18.0963 19 17.7706C18.9998 17.445 18.8702 17.1327 18.6398 16.9026L11.2352 9.5L18.6398 2.09738Z"/>
</mask>
<path d="M18.6398 2.09738L15.8131 -0.732765L15.8118 -0.731434L18.6398 2.09738ZM16.9045 0.359853L14.0778 -2.47029L14.076 -2.46855L16.9045 0.359853ZM9.49984 7.76461L6.67099 10.5926L9.49944 13.4219L12.3283 10.593L9.49984 7.76461ZM2.09734 0.359853L4.9262 -2.46814L4.92579 -2.46855L2.09734 0.359853ZM1.2286 0V4V0ZM0 1.22862H-4H0ZM0.359847 2.09738L-2.4686 4.92578L-2.4682 4.92619L0.359847 2.09738ZM7.76448 9.5L10.5925 12.3288L13.4221 9.5L10.5925 6.67119L7.76448 9.5ZM0.359847 16.9026L-2.4682 14.0738L-2.4686 14.0742L0.359847 16.9026ZM0.359847 18.6401L-2.4686 21.4685L0.359847 18.6401ZM2.09734 18.6401L4.92579 21.4685L4.9262 21.4681L2.09734 18.6401ZM9.49984 11.2354L12.3283 8.40698L9.49944 5.57808L6.67099 8.40739L9.49984 11.2354ZM16.9045 18.6401L14.076 21.4685L14.0778 21.4703L16.9045 18.6401ZM18.6398 16.9026L15.8118 19.7314L15.8131 19.7328L18.6398 16.9026ZM11.2352 9.5L8.40716 6.67119L5.57758 9.5L8.40716 12.3288L11.2352 9.5ZM21.4665 4.92752C21.9523 4.44237 22.3377 3.86629 22.6008 3.23218L15.2117 0.166211C15.3512 -0.170033 15.5556 -0.475505 15.8131 -0.732765L21.4665 4.92752ZM22.6008 3.23218C22.8639 2.59808 22.9996 1.91836 23 1.23183L15 1.22691C15.0002 0.86287 15.0721 0.502444 15.2117 0.166211L22.6008 3.23218ZM23 1.23183C23.0004 0.545304 22.8656 -0.134581 22.6033 -0.76901L15.2104 2.28787C15.0713 1.95146 14.9998 1.59095 15 1.22691L23 1.23183ZM22.6033 -0.76901C22.341 -1.4034 21.9563 -1.97996 21.4711 -2.46574L15.8107 3.18759C15.5534 2.92998 15.3494 2.62424 15.2104 2.28787L22.6033 -0.76901ZM21.4711 -2.46574C20.9859 -2.95151 20.4099 -3.33695 19.7758 -3.60006L16.7097 3.78908C16.3735 3.64956 16.068 3.44518 15.8107 3.18759L21.4711 -2.46574ZM19.7758 -3.60006C19.1416 -3.86318 18.4619 -3.99882 17.7754 -3.99924L17.7705 4.00075C17.4064 4.00053 17.046 3.9286 16.7097 3.78908L19.7758 -3.60006ZM17.7754 -3.99924C17.0888 -3.99967 16.4089 -3.86486 15.7745 -3.60252L18.8315 3.79038C18.495 3.9295 18.1345 4.00098 17.7705 4.00075L17.7754 -3.99924ZM15.7745 -3.60252C15.1401 -3.34018 14.5635 -2.95544 14.0778 -2.47029L19.7312 3.18999C19.4736 3.44725 19.1679 3.65127 18.8315 3.79038L15.7745 -3.60252ZM14.076 -2.46855L6.67139 4.9362L12.3283 10.593L19.7329 3.18826L14.076 -2.46855ZM12.3287 4.93661L4.9262 -2.46814L-0.731515 3.18785L6.67099 10.5926L12.3287 4.93661ZM4.92579 -2.46855C3.94525 -3.44912 2.61532 -4 1.2286 -4V4C0.493554 4 -0.211371 3.708 -0.731107 3.18826L4.92579 -2.46855ZM1.2286 -4C-0.158133 -4 -1.48805 -3.44912 -2.4686 -2.46855L3.1883 3.18826C2.66856 3.708 1.96364 4 1.2286 4V-4ZM-2.4686 -2.46855C-3.44915 -1.48799 -4 -0.158077 -4 1.22862H4C4 1.96361 3.70803 2.66851 3.1883 3.18826L-2.4686 -2.46855ZM-4 1.22862C-4 2.61531 -3.44915 3.94522 -2.4686 4.92578L3.1883 -0.731027C3.70803 -0.211285 4 0.493621 4 1.22862H-4ZM-2.4682 4.92619L4.93644 12.3288L10.5925 6.67119L3.18789 -0.731434L-2.4682 4.92619ZM4.93644 6.67119L-2.4682 14.0738L3.18789 19.7314L10.5925 12.3288L4.93644 6.67119ZM-2.4686 14.0742C-2.95411 14.5597 -3.33925 15.1361 -3.60201 15.7705L3.78905 18.8319C3.64977 19.1682 3.44564 19.4737 3.1883 19.731L-2.4686 14.0742ZM-3.60201 15.7705C-3.86476 16.4049 -4 17.0848 -4 17.7714H4C4 18.1353 3.92832 18.4957 3.78905 18.8319L-3.60201 15.7705ZM-4 17.7714C-4 18.458 -3.86476 19.1379 -3.60201 19.7723L3.78905 16.7108C3.92832 17.0471 4 17.4074 4 17.7714H-4ZM-3.60201 19.7723C-3.33925 20.4066 -2.95412 20.983 -2.4686 21.4685L3.1883 15.8117C3.44564 16.0691 3.64978 16.3746 3.78905 16.7108L-3.60201 19.7723ZM-2.4686 21.4685C-1.48808 22.4491 -0.158167 23 1.2286 23V15C1.96367 15 2.66859 15.292 3.1883 15.8117L-2.4686 21.4685ZM1.2286 23C1.9153 23 2.59521 22.8647 3.22951 22.602L0.168003 15.211C0.504191 15.0717 0.864575 15 1.2286 15V23ZM3.22951 22.602C3.86388 22.3392 4.44028 21.9541 4.92579 21.4685L-0.731107 15.8117C-0.47376 15.5544 -0.168243 15.3502 0.168003 15.211L3.22951 22.602ZM4.9262 21.4681L12.3287 14.0634L6.67099 8.40739L-0.731515 15.8121L4.9262 21.4681ZM6.67139 14.0638L14.076 21.4685L19.7329 15.8117L12.3283 8.40698L6.67139 14.0638ZM14.0778 21.4703C15.0588 22.4501 16.3888 23.0001 17.7754 22.9992L17.7705 14.9992C18.5057 14.9988 19.211 15.2904 19.7312 15.81L14.0778 21.4703ZM17.7754 22.9992C19.1619 22.9984 20.4913 22.4468 21.4711 21.4657L15.8107 15.8124C16.3303 15.2922 17.0352 14.9997 17.7705 14.9992L17.7754 22.9992ZM21.4711 21.4657C22.4509 20.4847 23.0009 19.1546 23 17.7682L15 17.7731C14.9995 17.0379 15.2912 16.3326 15.8107 15.8124L21.4711 21.4657ZM23 17.7682C22.9991 16.3817 22.4475 15.0523 21.4665 14.0725L15.8131 19.7328C15.2929 19.2132 15.0005 18.5083 15 17.7731L23 17.7682ZM21.4679 14.0738L14.0632 6.67119L8.40716 12.3288L15.8118 19.7314L21.4679 14.0738ZM14.0632 12.3288L21.4679 4.92619L15.8118 -0.731434L8.40716 6.67119L14.0632 12.3288Z" fill="white" mask="url(#path-1-inside-1_566_654)"/>
</svg>
