<svg width="12" height="13" viewBox="0 0 12 13" fill="none" xmlns="http://www.w3.org/2000/svg">
<path d="M7.29489 11.5754C7.18282 11.6875 7.04976 11.7765 6.90332 11.8372C6.75687 11.8978 6.5999 11.9291 6.44138 11.9291C6.28286 11.9291 6.12589 11.8978 5.97944 11.8372C5.83299 11.7765 5.69993 11.6875 5.58787 11.5754L0.820359 6.80791C0.594029 6.58164 0.46685 6.27472 0.466797 5.95468V2.53952C0.466797 1.87422 1.00774 1.33328 1.67359 1.33328H5.0882C5.40774 1.33328 5.71501 1.46043 5.94143 1.68684L10.7089 6.45435C10.8211 6.56642 10.91 6.69948 10.9707 6.84593C11.0313 6.99237 11.0626 7.14934 11.0626 7.30786C11.0626 7.46638 11.0313 7.62335 10.9707 7.7698C10.91 7.91625 10.8211 8.04931 10.7089 8.16138L7.29489 11.5754Z" stroke="#8E8E8E" stroke-width="0.787297" stroke-linecap="round" stroke-linejoin="round"/>
<path d="M2.41797 3.2851L2.6968 3.56393" stroke="#8E8E8E" stroke-width="0.787297" stroke-linecap="round"/>
</svg>
