<svg width="142" height="116" viewBox="0 0 142 116" fill="none" xmlns="http://www.w3.org/2000/svg">
<path fill-rule="evenodd" clip-rule="evenodd" d="M47.8512 0.13566C47.8512 0.629443 50.6051 3.69212 52.2451 5.02227C55.2433 7.45377 60.441 9.73836 62.975 9.73836C64.0594 9.73836 73.6411 14.2459 73.6411 14.7559C73.6411 14.913 72.4834 14.9289 70.9223 14.7933C64.3207 14.2214 61.3471 14.6961 58.2156 16.8228L56.7217 17.8373L58.7339 18.2161C61.5028 18.7372 63.1073 18.7179 64.8524 18.1422C66.5088 17.5956 69.7177 15.8846 69.4961 15.6659C69.4178 15.5886 68.6056 15.9379 67.6911 16.4425C64.8791 17.9931 62.823 18.4296 60.2111 18.0296C58.9816 17.8413 57.9285 17.6407 57.8711 17.5837C57.7309 17.4454 60.162 16.0852 61.523 15.5408C62.6211 15.1013 65.0273 15.0504 72.5536 15.3065C75.6621 15.4123 76.1676 15.5156 78.1364 16.4474C80.2527 17.4494 80.2841 17.4809 79.5346 17.8606C79.113 18.0744 77.7893 18.4108 76.593 18.6084C73.3565 19.1429 69.6322 20.1642 68.0143 20.9607L66.5822 21.6661L61.6445 21.046C53.9693 20.0823 54.6343 20.3657 54.1654 17.8582C53.5561 14.5989 52.2548 12.3045 49.6077 9.82301C47.0433 7.41819 44.6874 6.13129 42.3496 5.85802L40.7695 5.67339L41.2179 7.58902C41.4646 8.64284 41.6125 9.55802 41.5466 9.62304C41.4808 9.68806 40.9737 9.58532 40.42 9.39455C39.2809 9.0029 37.0399 9.2182 35.8489 9.83436L35.0532 10.2456L36.4651 11.6393L37.877 13.0329L36.4166 13.2286C34.6524 13.465 32.0044 14.2993 32.0044 14.6188C32.0044 14.7455 32.7458 14.7887 33.6521 14.7145C36.0783 14.5158 47.8323 17.3761 51.9816 19.1748C54.2365 20.1523 54.2145 20.7151 51.8894 21.5349C50.6061 21.9876 49.3709 22.1375 46.919 22.1388C43.8535 22.1406 43.4877 22.0713 40.86 20.9926C38.3577 19.9655 37.8133 19.5873 35.6849 17.3984C34.3767 16.053 33.173 14.9522 33.0105 14.9522C32.8477 14.9522 33.6733 15.9389 34.8453 17.1448C36.8414 19.1987 37.3019 19.8578 36.7429 19.8606C36.6146 19.8612 36.0379 20.1458 35.4608 20.493L34.4118 21.1242L36.1528 22.3856L37.8935 23.6471L36.9613 24.2068C36.4483 24.5147 35.8924 24.7665 35.7256 24.7665C34.9075 24.7665 35.6373 25.3361 37.6751 26.2875C39.6099 27.191 40.2565 27.34 42.2582 27.3456C44.134 27.3505 44.9366 27.1928 46.3725 26.5374C48.8909 25.3879 51.3471 23.7182 53.0611 21.9912L54.5317 20.5093L59.5033 21.1356C62.2376 21.4803 64.7175 21.8514 65.0143 21.9609C65.4483 22.1207 65.1939 22.4433 63.7145 23.6088C62.4688 24.5899 61.2265 26.0255 59.8659 28.0559C58.7607 29.7047 57.9046 31.1035 57.9633 31.1646C58.0221 31.2253 59.6736 30.9072 61.6333 30.4573C65.7522 29.5118 68.7839 27.9203 72.809 24.5911L75.192 22.6197L78.0677 22.6184C82.3038 22.6166 89.108 22.0691 93.5274 21.3745C99.7496 20.3964 109.205 17.7557 110.151 16.7323C110.373 16.4918 110.284 16.4655 109.84 16.6397C104.756 18.6369 97.6034 20.4734 94.9256 20.4691C91.311 20.4633 90.7846 20.2608 89.5893 18.4167C88.9983 17.5046 88.5235 16.5244 88.534 16.2385C88.5449 15.9527 88.64 14.7918 88.7457 13.6589C88.9184 11.8043 88.8569 11.4629 88.1286 10.2361C87.2126 8.69344 82.9628 5.61021 82.9628 6.48829C82.9628 6.55637 83.2365 7.95553 83.5712 9.59759C84.2448 12.9026 85.0188 14.3361 86.9627 15.8778C88.1891 16.8507 90.3341 19.8594 89.8012 19.8594C89.6458 19.8594 88.7814 19.7033 87.8806 19.5125C85.6502 19.0405 82.7397 16.3256 81.1833 13.2654C78.0789 7.16179 75.1267 3.55135 71.8175 1.81023C70.8074 1.27903 69.8286 0.84413 69.6428 0.84413C69.2192 0.84413 70.5467 4.55118 71.9791 7.36912C73.5405 10.4407 74.8719 11.7181 78.2858 13.4206C80.501 14.5253 81.7268 15.3822 83.1182 16.7992C85.2861 19.0068 85.3302 19.0092 79.4085 16.5891C72.1724 13.6313 71.3987 13.0685 70.5134 10.1184C70.2978 9.39946 69.6583 8.27756 69.0925 7.62491C68.0739 6.45025 65.3511 4.5245 64.7088 4.5245C64.0805 4.5245 66.9401 9.20287 68.1591 10.1687C71.4726 12.7946 71.4428 12.8973 67.8735 11.1587C64.8763 9.69879 64.2654 9.26574 63.1024 7.77764C60.2981 4.1902 57.1325 2.26138 51.9123 0.959142C50.2767 0.551234 48.6939 0.142098 48.395 0.0500888C48.0961 -0.0419205 47.8512 -0.00358114 47.8512 0.13566ZM52.2697 1.43544C56.1003 2.40246 59.2631 4.15769 61.481 6.54686C62.5331 7.68011 63.3435 8.65694 63.282 8.71767C63.0872 8.91028 49.4048 1.27044 49.4048 0.969264C49.4048 0.753042 49.8603 0.82726 52.2697 1.43544ZM55.9996 5.32376C58.174 6.56097 60.67 7.93161 61.5457 8.36957C62.4216 8.80784 63.0666 9.23691 62.979 9.3234C62.6497 9.6485 58.9723 8.48581 56.6412 7.31944C54.0653 6.03069 50.8764 3.63998 50.0564 2.38344L49.5602 1.62284L50.8031 2.34879C51.4867 2.74811 53.8251 4.08684 55.9996 5.32376ZM74.9173 4.56376C76.5784 6.15276 78.6615 9.19735 80.1368 12.1919L81.1187 14.1855L78.4284 11.4252C75.8914 8.82225 70.8446 2.53679 70.8446 1.98045C70.8446 1.50108 73.4298 3.14099 74.9173 4.56376ZM77.4142 10.9955L79.9385 13.7742L77.7871 12.705C74.8644 11.2522 73.8133 10.1135 72.0763 6.51804C69.8357 1.88046 69.9131 1.62284 72.5129 5.06736C73.8204 6.79958 76.0259 9.46724 77.4142 10.9955ZM68.5291 7.51542C69.5113 8.51372 70.7735 11.2718 70.2481 11.2718C69.5825 11.2718 67.1132 8.65235 66.2205 6.99955L65.2147 5.13697L66.3556 5.80159C66.983 6.16687 67.9611 6.93821 68.5291 7.51542ZM44.8993 6.96919C46.9147 7.8353 49.892 10.2447 51.4096 12.237C52.1867 13.2577 52.8228 14.2416 52.8228 14.4235C52.8228 14.6056 51.6694 13.6506 50.2593 12.3011C47.3979 9.56324 45.5394 8.22358 43.0251 7.08757C42.0907 6.66525 41.326 6.25458 41.326 6.17484C41.326 5.91231 43.6338 6.4251 44.8993 6.96919ZM44.7431 8.43367C47.0934 9.72916 52.6997 14.9289 53.3311 16.3992C54.0675 18.114 53.8053 18.1158 51.8946 16.409C49.5372 14.3032 47.4544 13.1832 45.3384 12.8823C43.7021 12.6501 43.6586 12.6167 42.8219 10.9621C42.3536 10.0362 41.8757 8.73853 41.7595 8.07882C41.5112 6.66617 41.5426 6.66985 44.7431 8.43367ZM86.34 8.74895C87.8334 9.84662 88.6788 11.8868 88.4458 13.8291C88.1848 16.0042 87.8424 16.2002 86.5103 14.9363C85.8973 14.3548 85.1891 13.4896 84.9368 13.0142C84.5438 12.2729 83.5843 8.165 83.5843 7.22252C83.5843 6.89589 84.5379 7.42402 86.34 8.74895ZM41.1707 10.0935C41.6983 10.3275 41.675 10.3453 41.0153 10.2113C40.5881 10.1245 39.8538 10.0515 39.384 10.0494C38.9142 10.0469 38.5295 9.896 38.5295 9.71413C38.5295 9.36603 40.0095 9.57857 41.1707 10.0935ZM41.6958 10.8078C42.3461 11.0664 43.315 12.4787 43.0319 12.7553C42.9176 12.8673 41.8288 12.9249 40.612 12.8842C38.7122 12.8198 38.248 12.6876 37.3196 11.946C35.4472 10.4502 35.6215 10.2383 38.5659 10.4294C39.9986 10.5226 41.4071 10.6928 41.6958 10.8078ZM41.4814 13.4868C41.6523 13.4804 42.4543 13.3749 43.2637 13.2525C45.9577 12.8449 49.1578 14.302 52.5897 17.4981C53.9712 18.785 54.5541 19.8306 53.6772 19.4496C50.6256 18.1229 48.1942 17.3595 42.6289 15.98C38.9872 15.0774 35.5034 14.3388 34.8866 14.3388C34.2699 14.3388 33.8317 14.2729 33.9135 14.1925C34.2661 13.8441 39.0938 13.1642 40.0832 13.3233C40.6813 13.4196 41.3105 13.4933 41.4814 13.4868ZM84.0771 18.7878C85.8678 19.3791 88.7618 20.1145 90.5078 20.4222C93.5886 20.9647 93.6414 20.9874 92.2845 21.1877C89.0909 21.6597 84.7302 21.9771 80.7878 22.0244C75.2305 22.0912 75.5483 22.1654 76.6126 21.0472C77.5432 20.0692 80.4158 17.7125 80.6771 17.7125C80.7564 17.7125 82.2864 18.1965 84.0771 18.7878ZM75.8162 21.3965C72.6527 24.3353 68.4959 27.4354 66.1151 28.6315C64.8928 29.2455 60.0303 30.5938 59.0384 30.5938C58.6165 30.5938 60.7763 27.1401 62.1892 25.556C63.7164 23.8437 66.9954 21.6894 69.4464 20.7884C71.17 20.155 77.2297 18.7053 78.302 18.67C78.5583 18.6614 77.4397 19.8885 75.8162 21.3965ZM38.5988 20.4421C39.3297 20.7623 40.3473 21.1954 40.86 21.4042L41.7921 21.7842L41.0135 22.002C40.585 22.1219 39.7622 22.4611 39.1849 22.7555C38.143 23.2873 38.1262 23.2849 36.8812 22.4188C35.2977 21.3171 35.2166 21.0475 36.2753 20.3995C37.3218 19.7591 37.0291 19.7539 38.5988 20.4421ZM52.512 21.84C52.512 21.9173 51.8769 22.3476 51.1007 22.7966C49.1593 23.9197 45.8396 24.9076 41.8512 25.5489C38.6734 26.0602 38.4317 26.0608 37.3746 25.5633L36.2569 25.0374L38.2477 23.825C40.9818 22.1599 41.7238 22.001 44.2978 22.5307C46.0614 22.8935 46.8731 22.9083 48.766 22.6117C50.0381 22.4123 51.3664 22.1342 51.7178 21.9937C52.5273 21.6701 52.512 21.6732 52.512 21.84ZM49.5602 24.3412C46.9961 26.3013 43.0561 27.3897 40.5396 26.8328L38.9956 26.4911L41.326 26.0884C44.1486 25.6008 48.7632 24.4779 49.4048 24.1231C50.1518 23.7097 50.2344 23.8256 49.5602 24.3412ZM41.0153 52.0896V61.9309L45.9092 61.8273C50.5188 61.7297 50.905 61.6742 52.5562 60.8741C56.1528 59.1305 58.2051 55.9362 58.2175 52.0626C58.2275 49.0012 57.368 47.0601 55.0951 45.0095C52.6736 42.8252 50.602 42.2483 45.1774 42.2483H41.0153V52.0896ZM66.8053 52.0626V61.8769H73.3304H79.8556V61.1102V60.3435H74.5733H69.291V56.203V52.0626H73.7965C78.0947 52.0626 78.302 52.0344 78.302 51.4492C78.302 50.8641 78.0947 50.8358 73.7965 50.8358H69.291V47.3088V43.7818H74.5733H79.8556V43.015V42.2483H73.3304H66.8053V52.0626ZM88.2451 52.0626V61.8769H94.7702H101.295V61.1102V60.3435H96.0131H90.7309V51.2959V42.2483H89.488H88.2451V52.0626ZM49.595 43.9281C51.6187 44.5215 53.6583 46.2771 54.5709 48.2117C55.5453 50.2767 55.5872 53.7249 54.6625 55.743C53.163 59.017 50.8811 60.376 46.5306 60.5861L43.5011 60.732V52.1037V43.4751H45.775C47.0259 43.4751 48.7448 43.679 49.595 43.9281ZM28.4311 72.712C27.7475 72.9349 26.8535 73.2953 26.4443 73.5124C25.0439 74.2553 22.9381 76.4199 22.1113 77.9663C21.3761 79.3415 21.2851 79.8503 21.2851 82.579C21.2851 85.3077 21.3761 85.8165 22.1113 87.1918C23.127 89.0918 25.3528 91.1629 27.2889 92.0103C28.1278 92.3774 29.6817 92.7062 30.9656 92.7884C35.6771 93.0893 39.8771 90.7703 41.8502 86.7777C42.5733 85.3145 42.7128 84.6361 42.7137 82.579C42.7153 79.6099 42.0432 77.9421 39.9582 75.7424C37.873 73.5416 35.6032 72.5528 32.3247 72.4163C30.6642 72.3473 29.2097 72.4577 28.4311 72.712ZM54.5317 72.6589C50.3665 74.1669 49.3101 78.6456 52.4953 81.2912C53.0111 81.7197 54.5892 82.51 56.0021 83.048C61.1843 85.02 62.1444 85.8316 62.1444 88.241C62.1444 90.5476 60.5498 91.6266 57.1402 91.6266C54.2319 91.6266 51.8906 90.0606 51.8906 88.1149C51.8906 87.7779 51.5802 87.6395 50.8248 87.6395C49.7702 87.6395 49.7621 87.6503 50.0471 88.6363C50.4815 90.1379 51.3263 91.0804 53.0011 91.9315C54.2869 92.5847 54.9344 92.7001 57.3192 92.7001C62.0276 92.7001 64.3164 91.1003 64.5705 87.6322C64.8058 84.425 63.5532 83.1529 58.0743 81.0336C54.1502 79.5157 52.8228 78.5138 52.8228 77.0692C52.8228 75.0631 54.556 73.8375 57.3904 73.8394C59.5378 73.8406 61.1038 74.6402 61.624 76.0001C61.9101 76.749 62.1457 76.9051 62.9893 76.9051C64.1933 76.9051 64.2104 76.814 63.3047 75.2364C62.3346 73.5468 60.1875 72.4954 57.5057 72.3967C56.3827 72.3553 55.0444 72.4733 54.5317 72.6589ZM80.1259 72.7647C73.8683 74.7527 70.9323 81.6948 73.9702 87.3203C75.7332 90.5851 78.7721 92.4679 82.7556 92.7626C83.995 92.8543 85.5312 92.7773 86.2198 92.5887C87.4406 92.2547 87.4764 92.2685 88.8771 93.6306C90.2325 94.9478 90.3425 94.9951 91.2995 94.6657L92.3019 94.3209L91.0304 92.9595L89.7589 91.5978L91.2982 90.1554C92.1446 89.362 93.2359 87.9539 93.7231 87.0261C94.5061 85.5353 94.6087 85.0188 94.6059 82.579C94.6031 80.3266 94.4716 79.5572 93.8922 78.3969C92.7621 76.1356 91.1969 74.5656 89.0172 73.5063C87.3359 72.6893 86.5864 72.5172 84.2918 72.4215C82.4405 72.3442 81.1025 72.4546 80.1259 72.7647ZM0 82.7048V92.5467H4.45016C9.63581 92.5467 11.2811 92.1461 12.7151 90.5341C14.3768 88.6661 14.4194 85.4758 12.8042 83.8813C12.3015 83.3853 11.1375 82.7266 10.2175 82.4174C9.29774 82.1083 8.827 81.8457 9.1719 81.8338C10.361 81.793 12.034 80.3638 12.5976 78.9069C13.1072 77.59 13.1069 77.4464 12.5942 76.1218C12.2136 75.1373 11.6804 74.4807 10.7892 73.8983C9.57646 73.1055 9.32819 73.0671 4.76213 72.9671L0 72.8632V82.7048ZM102.905 80.3555C103.008 86.8296 103.098 87.9318 103.594 88.8663C104.949 91.4162 106.808 92.5185 110.179 92.77C113.112 92.989 114.9 92.4921 116.65 90.9715C118.806 89.0991 119.007 88.1554 119.007 79.9175C119.007 73.2014 118.982 72.9181 118.405 72.9181C117.831 72.9181 117.8 73.2379 117.706 80.2021C117.62 86.629 117.539 87.6248 117.016 88.6636C116.116 90.4535 114.381 91.434 111.867 91.5742C109.402 91.7116 107.687 91.0166 106.526 89.4101C105.819 88.4314 105.799 88.2128 105.708 80.6622L105.616 72.9181H104.2H102.785L102.905 80.3555ZM128.95 82.7324V92.5467H135.475H142V91.78V91.0132H136.718H131.435V86.8728V82.7324H135.941C140.239 82.7324 140.446 82.7042 140.446 82.119C140.446 81.5338 140.239 81.5056 135.941 81.5056H131.435V77.9786V74.4515H136.718H142V73.6848V72.9181H135.475H128.95V82.7324ZM86.8903 74.3086C88.4483 74.9315 90.2859 76.7788 91.0779 78.5177C91.6661 79.8089 91.8081 80.6386 91.8001 82.7324C91.7886 85.6356 91.1823 87.2384 89.3916 89.0982L88.4303 90.0968L87.2843 88.9924C86.1548 87.9036 86.1269 87.8953 85.3274 88.4124C84.8815 88.7007 84.5164 89.0178 84.5164 89.1169C84.5164 89.216 84.9527 89.7413 85.4855 90.2842L86.455 91.2715L85.0195 91.4837C79.3407 92.3243 74.9095 87.631 75.6344 81.5436C76.3438 75.5872 81.6152 72.1989 86.8903 74.3086ZM35.354 74.6288C38.4084 76.131 39.8902 78.7165 39.9101 82.579C39.92 84.5054 39.7696 85.3623 39.21 86.5661C37.4128 90.4348 33.4859 92.3707 29.6034 91.3021C27.6198 90.7562 25.1672 88.367 24.4464 86.2787C23.8631 84.5891 23.765 81.3216 24.2466 79.6111C25.5873 74.8454 30.9259 72.4507 35.354 74.6288ZM8.24097 74.6285C9.32695 75.1373 10.2548 76.6328 10.2526 77.8715C10.2507 79.0014 9.10105 80.5797 7.92652 81.0639C7.3377 81.3069 5.87265 81.5056 4.67077 81.5056H2.48578V77.8252V74.1449H4.84695C6.35333 74.1449 7.58193 74.32 8.24097 74.6285ZM9.03083 83.5246C11.0226 84.6603 11.7742 87.4503 10.6 89.3509C9.70696 90.7967 8.26024 91.3199 5.15768 91.3199H2.48578V86.9887V82.6572L5.22448 82.7867C7.20813 82.8802 8.25713 83.0835 9.03083 83.5246ZM38.2188 112.789V115.549H39.9483C40.8994 115.549 41.9481 115.406 42.2787 115.232C42.9993 114.851 43.0686 113.632 42.4005 113.085C42.068 112.812 42.0202 112.594 42.2452 112.372C42.7734 111.851 42.6143 110.688 41.968 110.346C41.6374 110.171 40.6586 110.028 39.7929 110.028H38.2188V112.789ZM47.4628 110.36C47.1636 110.532 46.7003 111.09 46.4334 111.6C45.1001 114.144 47.9068 116.488 50.6253 115.1C51.6035 114.601 51.8906 114.077 51.8906 112.789C51.8906 111.501 51.6035 110.976 50.6253 110.477C49.6111 109.959 48.2474 109.909 47.4628 110.36ZM55.3085 112.789C55.3085 114.424 55.435 115.549 55.6193 115.549C55.7902 115.549 55.93 115.135 55.93 114.629C55.93 113.793 56.0238 113.709 56.9504 113.709C57.7548 113.709 58.0876 113.904 58.5217 114.629C58.8247 115.135 59.2044 115.549 59.3656 115.549C59.8056 115.549 59.7245 115.268 59.0338 114.402L58.4092 113.618L59.0338 113.186C59.8951 112.59 59.8591 111.122 58.9679 110.506C58.577 110.235 57.6337 110.028 56.7929 110.028H55.3085V112.789ZM63.3873 112.789V115.549H65.0724C67.3391 115.549 68.6696 114.528 68.6696 112.789C68.6696 111.049 67.3391 110.028 65.0724 110.028H63.3873V112.789ZM73.5479 110.412C73.46 110.623 72.8895 111.865 72.2796 113.172C71.6699 114.48 71.3104 115.549 71.4807 115.549C71.651 115.549 71.9493 115.204 72.1441 114.782C72.456 114.107 72.6913 114.016 74.1234 114.016C75.5981 114.016 75.7668 114.087 75.9439 114.782C76.0511 115.204 76.2761 115.549 76.4436 115.549C76.8997 115.549 76.8475 115.37 75.5832 112.599C74.4757 110.171 73.904 109.557 73.5479 110.412ZM80.1663 112.789V115.549H81.8513C84.1181 115.549 85.4486 114.528 85.4486 112.789C85.4486 111.049 84.1181 110.028 81.8513 110.028H80.1663V112.789ZM89.721 110.36C89.4218 110.532 88.9585 111.09 88.6916 111.6C87.3583 114.144 90.165 116.488 92.8835 115.1C93.8617 114.601 94.1488 114.077 94.1488 112.789C94.1488 111.501 93.8617 110.976 92.8835 110.477C91.8693 109.959 90.5056 109.909 89.721 110.36ZM98.1105 110.36C96.9335 111.036 97.935 113.095 99.4407 113.095C99.712 113.095 100.2 113.287 100.525 113.522C101.045 113.897 101.063 114.013 100.673 114.477C100.318 114.899 99.9127 114.97 98.6645 114.83C97.2455 114.671 97.1566 114.696 97.7038 115.102C98.5427 115.724 100.155 115.66 101.017 114.972C102.123 114.087 101.484 112.986 99.5927 112.515C98.3619 112.21 98.1621 112.055 98.2454 111.476C98.3314 110.879 98.5244 110.798 99.8195 110.815C101.294 110.834 101.732 110.566 100.804 110.215C100.066 109.935 98.7236 110.007 98.1105 110.36ZM41.8975 111.372C42.0423 112.124 41.4466 112.472 40.0055 112.477C38.9123 112.482 38.8403 112.424 38.8403 111.545C38.8403 110.619 38.857 110.609 40.3134 110.702C41.4652 110.775 41.8108 110.921 41.8975 111.372ZM50.5784 111.119C51.0908 111.473 51.2691 111.905 51.2691 112.789C51.2691 114.187 50.4495 114.936 48.9176 114.936C47.7132 114.936 46.8156 114.019 46.8156 112.789C46.8156 110.927 48.9381 109.985 50.5784 111.119ZM58.8486 111.332C59.4026 112.204 58.7113 112.927 57.2189 113.036L55.93 113.131V111.869V110.607L57.2189 110.701C58.0311 110.76 58.6339 110.994 58.8486 111.332ZM67.4267 111.255C67.7719 111.596 68.0481 112.277 68.0481 112.789C68.0481 114.155 67.0877 114.936 65.407 114.936H64.0088V112.789V110.642H65.407C66.3911 110.642 66.9895 110.824 67.4267 111.255ZM84.2057 111.255C84.5509 111.596 84.8271 112.277 84.8271 112.789C84.8271 114.155 83.8667 114.936 82.186 114.936H80.7878V112.789V110.642H82.186C83.1701 110.642 83.7685 110.824 84.2057 111.255ZM92.8366 111.119C93.349 111.473 93.5274 111.905 93.5274 112.789C93.5274 114.194 92.7067 114.936 91.1503 114.936C90.4379 114.936 89.9662 114.699 89.4929 114.105C87.8402 112.032 90.5963 109.57 92.8366 111.119ZM75.1817 113.172C75.1889 113.299 74.6327 113.402 73.9456 113.402H72.6962L73.3618 112.114L74.0274 110.827L74.5982 111.884C74.912 112.466 75.1746 113.045 75.1817 113.172ZM42.1028 114.016C42.1028 114.724 41.9795 114.789 40.4716 114.875L38.8403 114.968V114.016V113.063L40.4716 113.156C41.9795 113.242 42.1028 113.307 42.1028 114.016Z" fill="#FFF5EB"/>
</svg>
