<svg width="102" height="83" viewBox="0 0 102 83" fill="none" xmlns="http://www.w3.org/2000/svg">
<path fill-rule="evenodd" clip-rule="evenodd" d="M34.372 0.0974456C34.372 0.452135 36.3502 2.65209 37.5282 3.60755C39.6818 5.35412 43.4154 6.99516 45.2356 6.99516C46.0145 6.99516 52.8972 10.233 52.8972 10.5993C52.8972 10.7121 52.0655 10.7236 50.9442 10.6262C46.2022 10.2153 44.0662 10.5564 41.8169 12.084L40.7438 12.8127L42.1892 13.0848C44.178 13.4591 45.3306 13.4452 46.5841 13.0317C47.7739 12.6391 50.0789 11.41 49.9197 11.253C49.8635 11.1975 49.2801 11.4484 48.6232 11.8108C46.6033 12.9246 45.1264 13.2381 43.2502 12.9509C42.3671 12.8156 41.6106 12.6715 41.5694 12.6305C41.4687 12.5312 43.215 11.5541 44.1926 11.1631C44.9813 10.8474 46.7098 10.8108 52.116 10.9948C54.3488 11.0708 54.712 11.145 56.1261 11.8143C57.6463 12.534 57.6688 12.5567 57.1305 12.8295C56.8276 12.983 55.8768 13.2247 55.0175 13.3666C52.6927 13.7506 50.0175 14.4842 48.8553 15.0563L47.8266 15.563L44.2798 15.1175C38.7667 14.4253 39.2443 14.6289 38.9075 12.8277C38.4699 10.4865 37.5351 8.83844 35.6337 7.05596C33.7917 5.32856 32.0994 4.40417 30.4201 4.20788L29.2852 4.07525L29.6072 5.45127C29.7844 6.20824 29.8907 6.86562 29.8434 6.91232C29.7961 6.95903 29.4318 6.88523 29.0341 6.7482C28.2158 6.46687 26.6061 6.62152 25.7506 7.06412L25.179 7.35954L26.1932 8.3606L27.2074 9.36166L26.1584 9.50222C24.8911 9.67207 22.9891 10.2713 22.9891 10.5009C22.9891 10.5918 23.5216 10.6229 24.1727 10.5696C25.9154 10.4268 34.3584 12.4814 37.3389 13.7735C38.9586 14.4756 38.9428 14.8798 37.2726 15.4687C36.3508 15.7939 35.4636 15.9016 33.7024 15.9025C31.5004 15.9038 31.2377 15.854 29.3501 15.0792C27.5527 14.3414 27.1617 14.0698 25.6328 12.4975C24.6932 11.531 23.8285 10.7403 23.7118 10.7403C23.5948 10.7403 24.1878 11.449 25.0297 12.3153C26.4635 13.7907 26.7943 14.2641 26.3928 14.2661C26.3006 14.2665 25.8863 14.471 25.4719 14.7203L24.7184 15.1737L25.9689 16.0798L27.2193 16.9859L26.5497 17.388C26.1812 17.6092 25.7819 17.7901 25.662 17.7901C25.0744 17.7901 25.5987 18.1992 27.0624 18.8825C28.4522 19.5316 28.9167 19.6386 30.3545 19.6426C31.7019 19.6461 32.2784 19.5329 33.3098 19.0621C35.1188 18.2364 36.8832 17.037 38.1143 15.7965L39.1707 14.732L42.7418 15.1819C44.7059 15.4295 46.4872 15.6961 46.7004 15.7747C47.0122 15.8895 46.8294 16.1212 45.7668 16.9584C44.872 17.6632 43.9796 18.6944 43.0023 20.1528C42.2084 21.3372 41.5935 22.342 41.6356 22.3858C41.6778 22.4294 42.8641 22.201 44.2718 21.8778C47.2305 21.1986 49.4082 20.0554 52.2994 17.664L54.0111 16.2479L56.0768 16.247C59.1196 16.2457 64.0071 15.8525 67.1816 15.3535C71.6511 14.6509 78.4434 12.7541 79.1223 12.019C79.2817 11.8462 79.2178 11.8273 78.8993 11.9524C75.2472 13.3871 70.1095 14.7062 68.186 14.7032C65.5896 14.699 65.2115 14.5536 64.3528 13.2289C63.9283 12.5737 63.5873 11.8696 63.5949 11.6643C63.6027 11.459 63.671 10.6251 63.7469 9.81131C63.871 8.47913 63.8268 8.23393 63.3036 7.35271C62.6456 6.24458 59.593 4.02987 59.593 4.6606C59.593 4.70951 59.7896 5.71453 60.03 6.89404C60.5139 9.26804 61.0699 10.2977 62.4662 11.4052C63.3471 12.104 64.8878 14.2652 64.5051 14.2652C64.3935 14.2652 63.7725 14.1531 63.1255 14.016C61.5234 13.677 59.4327 11.7268 58.3148 9.52865C56.0848 5.14439 53.9643 2.55097 51.5872 1.3003C50.8616 0.918737 50.1586 0.606347 50.0251 0.606347C49.7209 0.606347 50.6744 3.26916 51.7033 5.29331C52.8248 7.49965 53.7812 8.41722 56.2335 9.64013C57.8246 10.4337 58.7051 11.0492 59.7046 12.067C61.2618 13.6527 61.2935 13.6545 57.0399 11.9161C51.8421 9.79148 51.2864 9.38722 50.6505 7.26812C50.4956 6.75172 50.0362 5.94585 49.6298 5.47704C48.8982 4.63328 46.9423 3.24999 46.481 3.24999C46.0297 3.24999 48.0837 6.61051 48.9593 7.30425C51.3395 9.19049 51.318 9.26429 48.7542 8.01539C46.6013 6.96674 46.1625 6.65567 45.3271 5.58676C43.3127 3.00986 41.0388 1.62437 37.2891 0.688961C36.1143 0.395957 34.9773 0.10207 34.7626 0.0359793C34.5479 -0.0301119 34.372 -0.00257236 34.372 0.0974456ZM37.5458 1.03109C40.2974 1.72571 42.5693 2.98651 44.1624 4.70268C44.9182 5.5167 45.5003 6.21837 45.4561 6.26199C45.3161 6.40034 35.488 0.91257 35.488 0.696232C35.488 0.540918 35.8152 0.594229 37.5458 1.03109ZM40.2251 3.82411C41.787 4.71281 43.5799 5.69735 44.2089 6.01194C44.838 6.32676 45.3014 6.63496 45.2385 6.69709C45.0019 6.93061 42.3604 6.09544 40.6859 5.25762C38.8357 4.33191 36.545 2.61464 35.956 1.71205L35.5996 1.1657L36.4923 1.68716C36.9834 1.97399 38.6631 2.93562 40.2251 3.82411ZM53.8138 3.27819C55.007 4.41959 56.5033 6.60654 57.563 8.75759L58.2683 10.1896L56.3359 8.20683C54.5135 6.33711 50.8884 1.8222 50.8884 1.42257C50.8884 1.07824 52.7454 2.2562 53.8138 3.27819ZM55.6074 7.89819L57.4206 9.89414L55.8752 9.12616C53.7759 8.08258 53.0208 7.26459 51.7731 4.68197C50.1637 1.35075 50.2193 1.1657 52.0867 3.63993C53.0259 4.88421 54.6102 6.80041 55.6074 7.89819ZM49.2252 5.3984C49.9307 6.11549 50.8373 8.09668 50.4599 8.09668C49.9818 8.09668 48.2081 6.21507 47.5668 5.02785L46.8443 3.68994L47.6639 4.16734C48.1145 4.42972 48.8172 4.98379 49.2252 5.3984ZM32.2516 5.00603C33.6993 5.62817 35.8379 7.35888 36.928 8.78998C37.4862 9.52315 37.9431 10.2299 37.9431 10.3605C37.9431 10.4914 37.1146 9.80536 36.1018 8.83602C34.0464 6.86937 32.7114 5.90708 30.9053 5.09107C30.2342 4.78771 29.6849 4.49273 29.6849 4.43545C29.6849 4.24687 31.3426 4.61522 32.2516 5.00603ZM32.1394 6.05799C33.8276 6.98855 37.8547 10.7236 38.3083 11.7797C38.8372 13.0114 38.6488 13.0128 37.2764 11.7868C35.583 10.2742 34.087 9.46961 32.567 9.2535C31.3917 9.08673 31.3604 9.06271 30.7594 7.87417C30.423 7.20908 30.0797 6.27697 29.9963 5.8031C29.8179 4.78838 29.8405 4.79102 32.1394 6.05799ZM62.0189 6.28446C63.0916 7.07293 63.6989 8.53839 63.5315 9.93357C63.344 11.496 63.098 11.6367 62.1412 10.7289C61.7008 10.3112 61.1922 9.6897 61.011 9.34823C60.7286 8.81575 60.0394 5.865 60.0394 5.18801C60.0394 4.95338 60.7244 5.33275 62.0189 6.28446ZM29.5733 7.25027C29.9523 7.41836 29.9355 7.43114 29.4617 7.33487C29.1548 7.27252 28.6274 7.22009 28.2899 7.21855C27.9525 7.21679 27.6761 7.1084 27.6761 6.97776C27.6761 6.72771 28.7392 6.88038 29.5733 7.25027ZM29.9505 7.76336C30.4177 7.94908 31.1136 8.96358 30.9102 9.16229C30.8281 9.2427 30.046 9.28412 29.172 9.25482C27.8074 9.20855 27.4739 9.1136 26.807 8.58091C25.4621 7.50648 25.5873 7.35426 27.7023 7.49151C28.7314 7.55848 29.7432 7.68075 29.9505 7.76336ZM29.7965 9.68771C29.9193 9.68309 30.4953 9.6073 31.0767 9.5194C33.0118 9.22662 35.3105 10.2733 37.7757 12.5691C38.768 13.4935 39.1867 14.2445 38.5569 13.9709C36.3649 13.0178 34.6184 12.4695 30.6208 11.4786C28.0049 10.8302 25.5025 10.2997 25.0594 10.2997C24.6164 10.2997 24.3017 10.2524 24.3604 10.1946C24.6137 9.94437 28.0815 9.45595 28.7921 9.57029C29.2218 9.63947 29.6737 9.69234 29.7965 9.68771ZM60.3934 13.4954C61.6796 13.9202 63.7585 14.4485 65.0126 14.6694C67.2256 15.0592 67.2635 15.0755 66.2888 15.2193C63.9948 15.5584 60.8625 15.7864 58.0306 15.8203C54.0388 15.8683 54.2671 15.9216 55.0316 15.1184C55.7 14.4159 57.7635 12.7231 57.9512 12.7231C58.0081 12.7231 59.1071 13.0707 60.3934 13.4954ZM54.4595 15.3693C52.1872 17.4803 49.2013 19.7071 47.4912 20.5663C46.6131 21.0074 43.1203 21.9758 42.4079 21.9758C42.1048 21.9758 43.6562 19.495 44.6711 18.3571C45.7681 17.1272 48.1235 15.5797 49.884 14.9325C51.1221 14.4776 55.4748 13.4362 56.2451 13.4109C56.4292 13.4047 55.6257 14.2861 54.4595 15.3693ZM27.7259 14.6838C28.2509 14.9138 28.9818 15.2248 29.3501 15.3749L30.0197 15.6478L29.4604 15.8042C29.1526 15.8904 28.5616 16.134 28.1469 16.3455C27.3985 16.7275 27.3864 16.7258 26.4921 16.1036C25.3547 15.3123 25.2964 15.1186 26.0569 14.6531C26.8086 14.1931 26.5983 14.1894 27.7259 14.6838ZM37.7199 15.6879C37.7199 15.7434 37.2637 16.0525 36.7062 16.375C35.3116 17.1818 32.927 17.8914 30.0621 18.352C27.7795 18.7193 27.6058 18.7197 26.8465 18.3624L26.0437 17.9846L27.4737 17.1137C29.4376 15.9177 29.9706 15.8036 31.8195 16.184C33.0864 16.4447 33.6694 16.4552 35.0291 16.2422C35.9428 16.099 36.897 15.8992 37.1494 15.7983C37.7308 15.5659 37.7199 15.5681 37.7199 15.6879ZM35.5996 17.4845C33.7578 18.8925 30.9276 19.6743 29.12 19.2742L28.0109 19.0288L29.6849 18.7396C31.7124 18.3893 35.0271 17.5827 35.488 17.3279C36.0245 17.0309 36.0839 17.1142 35.5996 17.4845ZM29.4617 37.4165V44.4856L32.977 44.4111C36.2881 44.3411 36.5655 44.3012 37.7516 43.7264C40.3351 42.474 41.8093 40.1795 41.8182 37.3971C41.8254 35.198 41.208 33.8037 39.5753 32.3308C37.836 30.7618 36.3479 30.3474 32.4514 30.3474H29.4617V37.4165ZM47.9869 37.3971V44.4468H52.674H57.3611V43.8961V43.3453H53.5667H49.7724V40.3712V37.3971H53.0088C56.0962 37.3971 56.2451 37.3768 56.2451 36.9565C56.2451 36.5361 56.0962 36.5159 53.0088 36.5159H49.7724V33.9824V31.4489H53.5667H57.3611V30.8981V30.3474H52.674H47.9869V37.3971ZM63.3873 37.3971V44.4468H68.0744H72.7615V43.8961V43.3453H68.9672H65.1729V36.8463V30.3474H64.2801H63.3873V37.3971ZM35.6246 31.554C37.0782 31.9803 38.5433 33.2413 39.1988 34.631C39.8987 36.1143 39.9289 38.5911 39.2646 40.0407C38.1875 42.3925 36.5484 43.3687 33.4234 43.5196L31.2473 43.6244V37.4266V31.2286H32.8806C33.7792 31.2286 35.0139 31.3751 35.6246 31.554ZM20.4223 52.2297C19.9313 52.3899 19.2892 52.6487 18.9952 52.8047C17.9893 53.3383 16.4767 54.8932 15.8828 56.004C15.3547 56.9918 15.2893 57.3573 15.2893 59.3173C15.2893 61.2774 15.3547 61.6429 15.8828 62.6307C16.6124 63.9955 18.2111 65.4832 19.6019 66.0919C20.2045 66.3556 21.3207 66.5918 22.2429 66.6508C25.6272 66.8669 28.6441 65.2012 30.0614 62.3333C30.5808 61.2822 30.681 60.7949 30.6817 59.3173C30.6828 57.1846 30.2 55.9866 28.7024 54.4065C27.2045 52.8256 25.5741 52.1154 23.2192 52.0173C22.0264 51.9678 20.9816 52.0471 20.4223 52.2297ZM39.1707 52.1916C36.1788 53.2748 35.4199 56.4919 37.7079 58.3923C38.0784 58.7 39.212 59.2678 40.2268 59.6542C43.9493 61.0707 44.6389 61.6537 44.6389 63.3844C44.6389 65.0413 43.4935 65.8163 41.0444 65.8163C38.9553 65.8163 37.2735 64.6914 37.2735 63.2938C37.2735 63.0517 37.0506 62.9523 36.508 62.9523C35.7504 62.9523 35.7446 62.9601 35.9493 63.6683C36.2613 64.7469 36.8682 65.4239 38.0712 66.0353C38.9948 66.5045 39.4599 66.5874 41.173 66.5874C44.555 66.5874 46.1991 65.4383 46.3817 62.9471C46.5506 60.6433 45.6509 59.7295 41.7153 58.2072C38.8966 57.1169 37.9431 56.3972 37.9431 55.3596C37.9431 53.9186 39.1881 53.0382 41.2241 53.0396C42.7666 53.0404 43.8915 53.6148 44.2651 54.5916C44.4707 55.1296 44.6398 55.2417 45.2458 55.2417C46.1107 55.2417 46.123 55.1763 45.4724 54.043C44.7755 52.8294 43.2333 52.0742 41.3069 52.0032C40.5003 51.9735 39.5389 52.0583 39.1707 52.1916ZM57.5552 52.2676C53.0603 53.6956 50.9513 58.6822 53.1335 62.723C54.3999 65.0682 56.5828 66.4206 59.4441 66.6323C60.3345 66.6982 61.4379 66.6429 61.9325 66.5074C62.8095 66.2675 62.8351 66.2774 63.8413 67.2558C64.8149 68.202 64.8939 68.2359 65.5813 67.9993L66.3013 67.7517L65.388 66.7737L64.4747 65.7956L65.5804 64.7595C66.1884 64.1896 66.9723 63.1782 67.3222 62.5117C67.8847 61.4408 67.9583 61.0699 67.9563 59.3173C67.9543 57.6994 67.8599 57.1467 67.4437 56.3133C66.6319 54.689 65.5077 53.5612 63.9419 52.8003C62.7342 52.2134 62.1959 52.0898 60.5476 52.0211C59.2178 51.9656 58.2567 52.0449 57.5552 52.2676ZM0 59.4077V66.4772H3.1966C6.92149 66.4772 8.10331 66.1895 9.13335 65.0316C10.327 63.6897 10.3576 61.3981 9.19741 60.2527C8.83628 59.8965 8.00019 59.4233 7.33931 59.2012C6.67866 58.9792 6.34052 58.7906 6.58826 58.782C7.44243 58.7527 8.64411 57.7261 9.04898 56.6796C9.41502 55.7337 9.4148 55.6306 9.04653 54.6791C8.77312 53.9719 8.39012 53.5002 7.74999 53.0819C6.87886 52.5124 6.70053 52.4848 3.42068 52.413L0 52.3383V59.4077ZM73.9174 57.7201C73.992 62.3705 74.0562 63.1623 74.4127 63.8336C75.386 65.6652 76.7214 66.4569 79.1426 66.6376C81.2496 66.7949 82.5341 66.438 83.7911 65.3457C85.3392 64.0008 85.4836 63.3229 85.4836 57.4055C85.4836 52.5813 85.4662 52.3778 85.0517 52.3778C84.639 52.3778 84.6169 52.6075 84.5495 57.61C84.4875 62.2264 84.4292 62.9418 84.0538 63.6879C83.407 64.9736 82.1611 65.678 80.3555 65.7786C78.5849 65.8773 77.3528 65.3781 76.5188 64.2242C76.0108 63.5212 75.9962 63.3641 75.9313 57.9404L75.8648 52.3778H74.8481H73.8317L73.9174 57.7201ZM92.6258 59.4275V66.4772H97.3129H102V65.9265V65.3757H98.2057H94.4114V62.4016V59.4275H97.6477C100.735 59.4275 100.884 59.4072 100.884 58.9869C100.884 58.5665 100.735 58.5463 97.6477 58.5463H94.4114V56.0128V53.4793H98.2057H102V52.9285V52.3778H97.3129H92.6258V59.4275ZM62.4142 53.3766C63.5333 53.8241 64.8533 55.1509 65.4222 56.4001C65.8447 57.3275 65.9467 57.9235 65.9409 59.4275C65.9326 61.5129 65.4972 62.6642 64.2109 64.0001L63.5203 64.7174L62.6972 63.9241C61.8859 63.142 61.8658 63.1361 61.2915 63.5075C60.9712 63.7146 60.709 63.9424 60.709 64.0135C60.709 64.0847 61.0223 64.4621 61.4051 64.852L62.1015 65.5612L61.0703 65.7136C56.9912 66.3175 53.8082 62.9462 54.329 58.5736C54.8385 54.2951 58.625 51.8611 62.4142 53.3766ZM25.3951 53.6066C27.5891 54.6857 28.6535 56.5428 28.6678 59.3173C28.6749 60.7011 28.5669 61.3166 28.1649 62.1813C26.874 64.9602 24.0533 66.3508 21.2644 65.5832C19.8396 65.1911 18.0779 63.4749 17.5601 61.9749C17.1411 60.7612 17.0706 58.4141 17.4166 57.1855C18.3796 53.7622 22.2143 52.042 25.3951 53.6066ZM5.91957 53.6064C6.69964 53.9719 7.3661 55.0461 7.36453 55.9359C7.3632 56.7475 6.53737 57.8812 5.6937 58.229C5.27074 58.4035 4.21838 58.5463 3.35506 58.5463H1.78556V55.9026V53.259H3.48161C4.56366 53.259 5.44618 53.3848 5.91957 53.6064ZM6.48693 59.9965C7.91761 60.8123 8.45752 62.8164 7.61407 64.1816C6.9726 65.2202 5.93341 65.596 3.70481 65.596H1.78556V62.4849V59.3735L3.7528 59.4665C5.17767 59.5337 5.93118 59.6797 6.48693 59.9965ZM27.453 81.0173V83H28.6953C29.3785 83 30.1317 82.8973 30.3692 82.772C30.8868 82.4984 30.9366 81.6229 30.4567 81.2299C30.2179 81.0342 30.1835 80.8776 30.3451 80.7181C30.7245 80.3436 30.6103 79.508 30.146 79.2625C29.9085 79.1372 29.2055 79.0345 28.5837 79.0345H27.453V81.0173ZM34.093 79.2725C33.8781 79.3961 33.5453 79.7968 33.3536 80.1631C32.3958 81.9908 34.4119 83.6744 36.3647 82.6777C37.0673 82.319 37.2735 81.9423 37.2735 81.0173C37.2735 80.0922 37.0673 79.7155 36.3647 79.3568C35.6362 78.985 34.6566 78.9486 34.093 79.2725ZM39.7287 81.0173C39.7287 82.1921 39.8195 83 39.9519 83C40.0746 83 40.1751 82.7026 40.1751 82.3391C40.1751 81.739 40.2425 81.6782 40.908 81.6782C41.4859 81.6782 41.7249 81.8181 42.0367 82.3391C42.2543 82.7026 42.5271 83 42.6429 83C42.959 83 42.9007 82.7984 42.4046 82.1758L41.9559 81.6127L42.4046 81.3026C43.0232 80.8747 42.9974 79.8199 42.3572 79.3775C42.0765 79.1832 41.3988 79.0345 40.7949 79.0345H39.7287V81.0173ZM45.5317 81.0173V83H46.7421C48.3703 83 49.326 82.2666 49.326 81.0173C49.326 79.7679 48.3703 79.0345 46.7421 79.0345H45.5317V81.0173ZM52.8302 79.3099C52.767 79.4615 52.3572 80.3535 51.9191 81.2926C51.4812 82.2318 51.223 83 51.3453 83C51.4676 83 51.6819 82.7522 51.8218 82.4492C52.0459 81.9639 52.2148 81.8985 53.2436 81.8985C54.3028 81.8985 54.424 81.9496 54.5513 82.4492C54.6283 82.7522 54.7898 83 54.9102 83C55.2378 83 55.2003 82.8713 54.2921 80.8807C53.4967 79.137 53.086 78.6957 52.8302 79.3099ZM57.5842 81.0173V83H58.7946C60.4228 83 61.3786 82.2666 61.3786 81.0173C61.3786 79.7679 60.4228 79.0345 58.7946 79.0345H57.5842V81.0173ZM64.4475 79.2725C64.2325 79.3961 63.8998 79.7968 63.708 80.1631C62.7503 81.9908 64.7664 83.6744 66.7192 82.6777C67.4218 82.319 67.628 81.9423 67.628 81.0173C67.628 80.0922 67.4218 79.7155 66.7192 79.3568C65.9907 78.985 65.0111 78.9486 64.4475 79.2725ZM70.4737 79.2725C69.6283 79.7585 70.3476 81.2376 71.4292 81.2376C71.6241 81.2376 71.9745 81.3755 72.2082 81.5442C72.5816 81.8137 72.5945 81.8967 72.3142 82.23C72.0595 82.533 71.7683 82.5841 70.8717 82.4836C69.8524 82.3695 69.7885 82.3876 70.1816 82.679C70.7842 83.1254 71.9426 83.0798 72.5613 82.5852C73.3561 81.95 72.8972 81.1587 71.5384 80.821C70.6543 80.6013 70.5108 80.4905 70.5706 80.0741C70.6324 79.6452 70.771 79.5871 71.7013 79.5992C72.7601 79.613 73.0753 79.4209 72.4084 79.1683C71.8781 78.9673 70.9141 79.0193 70.4737 79.2725ZM30.0954 79.9995C30.1994 80.5394 29.7715 80.7895 28.7363 80.7937C27.9511 80.7967 27.8993 80.7553 27.8993 80.1239C27.8993 79.4588 27.9114 79.4518 28.9575 79.5181C29.7849 79.5708 30.0331 79.6756 30.0954 79.9995ZM36.331 79.8182C36.699 80.0724 36.8271 80.3821 36.8271 81.0173C36.8271 82.0219 36.2383 82.5594 35.138 82.5594C34.2729 82.5594 33.6281 81.9007 33.6281 81.0173C33.6281 79.6798 35.1527 79.0035 36.331 79.8182ZM42.2715 79.9708C42.6695 80.5974 42.1729 81.1166 41.1009 81.1951L40.1751 81.2629V80.3564V79.4498L41.1009 79.5177C41.6843 79.5602 42.1173 79.7278 42.2715 79.9708ZM48.4333 79.9157C48.6812 80.1605 48.8796 80.65 48.8796 81.0173C48.8796 81.9985 48.1898 82.5594 46.9825 82.5594H45.9781V81.0173V79.4751H46.9825C47.6894 79.4751 48.1192 79.6058 48.4333 79.9157ZM60.4858 79.9157C60.7337 80.1605 60.9322 80.65 60.9322 81.0173C60.9322 81.9985 60.2423 82.5594 59.035 82.5594H58.0306V81.0173V79.4751H59.035C59.7419 79.4751 60.1717 79.6058 60.4858 79.9157ZM66.6855 79.8182C67.0535 80.0724 67.1816 80.3821 67.1816 81.0173C67.1816 82.0269 66.5922 82.5594 65.4742 82.5594C64.9624 82.5594 64.6236 82.3898 64.2837 81.963C63.0965 80.4733 65.0762 78.7054 66.6855 79.8182ZM54.0038 81.2926C54.0089 81.3836 53.6094 81.4579 53.1159 81.4579H52.2184L52.6965 80.5328L53.1746 79.608L53.5846 80.3676C53.81 80.7855 53.9986 81.2017 54.0038 81.2926ZM30.2429 81.8985C30.2429 82.4076 30.1543 82.4543 29.0711 82.5158L27.8993 82.5825V81.8985V81.2144L29.0711 81.2812C30.1543 81.3427 30.2429 81.3894 30.2429 81.8985Z" fill="#99877D"/>
</svg>
