<svg width="17" height="17" viewBox="0 0 17 17" fill="none" xmlns="http://www.w3.org/2000/svg">
<path d="M14.6234 2.94792C14.6234 2.26554 14.3523 1.61111 13.8698 1.12859C13.3873 0.646074 12.7329 0.375 12.0505 0.375H2.94792C2.26554 0.375 1.61111 0.646074 1.12859 1.12859C0.646074 1.61111 0.375 2.26554 0.375 2.94792V12.0513C0.375 12.7337 0.646074 13.3881 1.12859 13.8706C1.61111 14.3531 2.26554 14.6242 2.94792 14.6242H6.83817L7.12 13.4969L7.13583 13.4367H2.94792C2.58048 13.4367 2.2281 13.2907 1.96828 13.0309C1.70846 12.7711 1.5625 12.4187 1.5625 12.0513V4.72837H13.4359V6.892C13.8159 6.74158 14.2228 6.683 14.6234 6.71783V2.94792ZM2.94792 1.5625H12.0513C12.816 1.5625 13.4367 2.18238 13.4367 2.94792V3.54167H1.56171V2.94792C1.56171 2.18238 2.18238 1.5625 2.94713 1.5625H2.94792ZM13.1193 8.02962L8.44763 12.7013C8.17491 12.9737 7.98144 13.3153 7.88792 13.6893L7.52612 15.138C7.36779 15.769 7.93937 16.3397 8.56954 16.1822L10.0183 15.8196C10.3922 15.7263 10.7337 15.5331 11.0063 15.2607L15.6779 10.5875C16.0085 10.2463 16.1917 9.78881 16.188 9.31373C16.1842 8.83865 15.9937 8.38411 15.6577 8.04822C15.3218 7.71233 14.8672 7.52203 14.3921 7.5184C13.917 7.51478 13.4595 7.69811 13.1185 8.02883L13.1193 8.02962Z" fill="black"/>
</svg>
