<svg width="22" height="22" viewBox="0 0 22 22" fill="none" xmlns="http://www.w3.org/2000/svg">
<path d="M0.167969 11.0022C0.168579 13.5819 1.08931 16.0769 2.76468 18.0386C4.44004 20.0003 6.76017 21.3001 9.30805 21.7044V14.133H6.55964V11.0022H9.3113V8.61883C9.25054 8.06101 9.31335 7.49666 9.49527 6.96585C9.67719 6.43504 9.97376 5.95079 10.3639 5.54751C10.7541 5.14423 11.2282 4.8318 11.7527 4.63241C12.2772 4.43302 12.8392 4.35157 13.3987 4.39383C14.2112 4.40683 15.0237 4.47942 15.8254 4.6105V7.27442H14.4561C14.2233 7.24394 13.9867 7.26614 13.7637 7.3394C13.5407 7.41265 13.337 7.53508 13.1677 7.69764C12.9984 7.8602 12.8678 8.05873 12.7855 8.27855C12.7032 8.49838 12.6714 8.73389 12.6924 8.96767V11.0022H15.6943L15.2144 14.1341H12.6924V21.7044C14.7373 21.3812 16.6468 20.4789 18.1948 19.1042C19.7428 17.7295 20.8645 15.94 21.427 13.9476C21.9896 11.9551 21.9694 9.84327 21.369 7.86195C20.7686 5.88063 19.613 4.11285 18.039 2.76791C16.4651 1.42296 14.5387 0.557176 12.488 0.273055C10.4373 -0.0110653 8.34813 0.298377 6.46783 1.16475C4.58752 2.03111 2.99484 3.41813 1.87834 5.16157C0.761846 6.90501 0.168297 8.93187 0.167969 11.0022V11.0022Z" fill="#1B74E4"/>
</svg>
