<svg width="42" height="39" viewBox="0 0 42 39" fill="none" xmlns="http://www.w3.org/2000/svg">
<g filter="url(#filter0_d)">
<circle cx="21" cy="17" r="11" fill="#4F4138"/>
<path d="M25.7581 14.8444C25.6029 14.4834 25.3792 14.1564 25.0994 13.8815C24.8194 13.6058 24.4894 13.3867 24.1271 13.2361C23.7514 13.0793 23.3485 12.9991 22.9418 13C22.3711 13 21.8143 13.157 21.3305 13.4535C21.2147 13.5245 21.1048 13.6024 21.0006 13.6873C20.8964 13.6024 20.7864 13.5245 20.6707 13.4535C20.1868 13.157 19.63 13 19.0594 13C18.6485 13 18.2503 13.0791 17.8741 13.2361C17.5106 13.3873 17.183 13.6047 16.9017 13.8815C16.6216 14.1561 16.3978 14.4832 16.2431 14.8444C16.0822 15.22 16 15.6189 16 16.0294C16 16.4166 16.0787 16.8201 16.235 17.2306C16.3658 17.5737 16.5533 17.9296 16.7929 18.2889C17.1726 18.8575 17.6946 19.4506 18.3429 20.0518C19.4171 21.0485 20.4808 21.7369 20.526 21.7648L20.8003 21.9416C20.9219 22.0195 21.0781 22.0195 21.1997 21.9416L21.474 21.7648C21.5192 21.7357 22.5818 21.0485 23.6571 20.0518C24.3053 19.4506 24.8274 18.8575 25.2071 18.2889C25.4467 17.9296 25.6354 17.5737 25.765 17.2306C25.9213 16.8201 26 16.4166 26 16.0294C26.0011 15.6189 25.919 15.22 25.7581 14.8444Z" fill="white"/>
</g>
<defs>
<filter id="filter0_d" x="0" y="0" width="42" height="42" filterUnits="userSpaceOnUse" color-interpolation-filters="sRGB">
<feFlood flood-opacity="0" result="BackgroundImageFix"/>
<feColorMatrix in="SourceAlpha" type="matrix" values="0 0 0 0 0 0 0 0 0 0 0 0 0 0 0 0 0 0 127 0"/>
<feOffset dy="4"/>
<feGaussianBlur stdDeviation="5"/>
<feColorMatrix type="matrix" values="0 0 0 0 0 0 0 0 0 0 0 0 0 0 0 0 0 0 0.25 0"/>
<feBlend mode="normal" in2="BackgroundImageFix" result="effect1_dropShadow"/>
<feBlend mode="normal" in="SourceGraphic" in2="effect1_dropShadow" result="shape"/>
</filter>
</defs>
</svg>
