<svg width="22" height="22" viewBox="0 0 22 22" fill="none" xmlns="http://www.w3.org/2000/svg">
<circle cx="11" cy="11" r="10.5" fill="white" stroke="black"/>
<path d="M15.7581 8.84437C15.6029 8.48345 15.3792 8.15639 15.0994 7.88149C14.8194 7.60577 14.4894 7.38666 14.1271 7.23608C13.7514 7.07931 13.3485 6.99907 12.9418 7.00001C12.3711 7.00001 11.8143 7.157 11.3305 7.45354C11.2147 7.52448 11.1048 7.60239 11.0006 7.68728C10.8964 7.60239 10.7864 7.52448 10.6707 7.45354C10.1868 7.157 9.63005 7.00001 9.05938 7.00001C8.64845 7.00001 8.25026 7.07909 7.87406 7.23608C7.51059 7.38725 7.18301 7.60472 6.90172 7.88149C6.6216 8.15608 6.39782 8.48322 6.24308 8.84437C6.08219 9.21999 6 9.61886 6 10.0294C6 10.4166 6.07871 10.8201 6.23498 11.2306C6.36578 11.5737 6.5533 11.9296 6.79291 12.2889C7.17259 12.8575 7.69464 13.4506 8.34286 14.0518C9.41706 15.0485 10.4808 15.7369 10.526 15.7648L10.8003 15.9416C10.9219 16.0195 11.0781 16.0195 11.1997 15.9416L11.474 15.7648C11.5192 15.7357 12.5818 15.0485 13.6571 14.0518C14.3053 13.4506 14.8274 12.8575 15.2071 12.2889C15.4467 11.9296 15.6354 11.5737 15.765 11.2306C15.9213 10.8201 16 10.4166 16 10.0294C16.0011 9.61886 15.919 9.21999 15.7581 8.84437V8.84437Z" fill="#4F4138"/>
</svg>
