<svg width="24" height="24" viewBox="0 0 24 24" fill="none" xmlns="http://www.w3.org/2000/svg">
<path d="M11.9719 5.8177C10.34 5.8177 8.77494 6.46596 7.62103 7.61988C6.46711 8.77379 5.81885 10.3388 5.81885 11.9707C5.81885 13.6026 6.46711 15.1677 7.62103 16.3216C8.77494 17.4755 10.34 18.1238 11.9719 18.1238C13.6038 18.1238 15.1688 17.4755 16.3227 16.3216C17.4766 15.1677 18.1249 13.6026 18.1249 11.9707C18.1249 10.3388 17.4766 8.77379 16.3227 7.61988C15.1688 6.46596 13.6038 5.8177 11.9719 5.8177ZM11.9719 15.9667C10.9117 15.9667 9.89498 15.5456 9.14533 14.7959C8.39568 14.0463 7.97454 13.0296 7.97454 11.9694C7.97454 10.9092 8.39568 9.89249 9.14533 9.14285C9.89498 8.3932 10.9117 7.97205 11.9719 7.97205C13.032 7.97205 14.0488 8.3932 14.7984 9.14285C15.5481 9.89249 15.9692 10.9092 15.9692 11.9694C15.9692 13.0296 15.5481 14.0463 14.7984 14.7959C14.0488 15.5456 13.032 15.9667 11.9719 15.9667Z" fill="#FFF5EB"/>
<path d="M18.3685 7.02595C19.1608 7.02595 19.803 6.38372 19.803 5.59149C19.803 4.79926 19.1608 4.15702 18.3685 4.15702C17.5763 4.15702 16.9341 4.79926 16.9341 5.59149C16.9341 6.38372 17.5763 7.02595 18.3685 7.02595Z" fill="#FFF5EB"/>
<path d="M23.328 4.13307C23.02 3.33757 22.5492 2.61515 21.9459 2.01205C21.3426 1.40896 20.62 0.938485 19.8244 0.630738C18.8933 0.281247 17.9097 0.0922703 16.9155 0.0718562C15.6341 0.0159679 15.2282 0 11.9787 0C8.72921 0 8.31271 -1.33843e-07 7.04192 0.0718562C6.04842 0.0912265 5.06554 0.280241 4.13573 0.630738C3.3399 0.938126 2.61712 1.40848 2.01375 2.01161C1.41038 2.61475 0.939758 3.33736 0.632069 4.13307C0.282508 5.06402 0.0939648 6.04769 0.0745176 7.04192C0.0172987 8.32202 0 8.72788 0 11.9787C0 15.2282 -9.91428e-09 15.642 0.0745176 16.9155C0.0944777 17.9108 0.282102 18.8929 0.632069 19.8257C0.940622 20.6211 1.4117 21.3434 2.01522 21.9465C2.61873 22.5495 3.3414 23.0201 4.13706 23.328C5.06511 23.6915 6.0484 23.8941 7.04458 23.9268C8.32601 23.9827 8.73187 24 11.9814 24C15.2309 24 15.6474 24 16.9182 23.9268C17.9123 23.9066 18.8958 23.7181 19.827 23.3693C20.6224 23.0608 21.3448 22.5899 21.9481 21.9867C22.5513 21.3834 23.0222 20.661 23.3307 19.8656C23.6806 18.9341 23.8683 17.9521 23.8882 16.9568C23.9454 15.6766 23.9627 15.2708 23.9627 12.02C23.9627 8.76913 23.9627 8.35662 23.8882 7.08317C23.8727 6.07488 23.6832 5.07684 23.328 4.13307ZM21.7073 16.817C21.6987 17.5839 21.5587 18.3436 21.2934 19.0632C21.0936 19.5807 20.7877 20.0506 20.3953 20.4427C20.003 20.8348 19.5329 21.1405 19.0153 21.34C18.3037 21.6041 17.552 21.744 16.7931 21.7538C15.5289 21.8124 15.1723 21.827 11.9308 21.827C8.68663 21.827 8.35529 21.827 7.0672 21.7538C6.30862 21.7445 5.55732 21.6045 4.84631 21.34C4.32693 21.1417 3.85496 20.8366 3.46093 20.4444C3.0669 20.0522 2.75959 19.5817 2.55888 19.0632C2.29733 18.3514 2.15743 17.6006 2.14504 16.8423C2.08782 15.5782 2.07452 15.2216 2.07452 11.98C2.07452 8.73719 2.07452 8.40585 2.14504 7.11643C2.15364 6.35 2.29362 5.59071 2.55888 4.87159C2.96474 3.82169 3.79641 2.99534 4.84631 2.59348C5.55767 2.33019 6.30875 2.19024 7.0672 2.17964C8.33267 2.12242 8.68796 2.10645 11.9308 2.10645C15.1737 2.10645 15.5063 2.10645 16.7931 2.17964C17.5521 2.18877 18.3039 2.32877 19.0153 2.59348C19.5328 2.79344 20.0028 3.0994 20.3952 3.49172C20.7875 3.88404 21.0934 4.35405 21.2934 4.87159C21.555 5.58343 21.6949 6.33421 21.7073 7.09248C21.7645 8.35795 21.7791 8.71324 21.7791 11.9561C21.7791 15.1976 21.7791 15.5462 21.7219 16.8184H21.7073V16.817Z" fill="#FFF5EB"/>
</svg>
