<svg width="16" height="17" viewBox="0 0 16 17" fill="none" xmlns="http://www.w3.org/2000/svg">
<path d="M7.99511 3.88449C6.9055 3.88449 5.86051 4.31734 5.09004 5.08781C4.31957 5.85829 3.88672 6.90327 3.88672 7.99289C3.88672 9.0825 4.31957 10.1275 5.09004 10.898C5.86051 11.6684 6.9055 12.1013 7.99511 12.1013C9.08473 12.1013 10.1297 11.6684 10.9002 10.898C11.6707 10.1275 12.1035 9.0825 12.1035 7.99289C12.1035 6.90327 11.6707 5.85829 10.9002 5.08781C10.1297 4.31734 9.08473 3.88449 7.99511 3.88449V3.88449ZM7.99511 10.661C7.28724 10.661 6.60836 10.3798 6.10782 9.87929C5.60728 9.37875 5.32608 8.69987 5.32608 7.992C5.32608 7.28413 5.60728 6.60525 6.10782 6.10471C6.60836 5.60416 7.28724 5.32296 7.99511 5.32296C8.70299 5.32296 9.38187 5.60416 9.88241 6.10471C10.3829 6.60525 10.6642 7.28413 10.6642 7.992C10.6642 8.69987 10.3829 9.37875 9.88241 9.87929C9.38187 10.3798 8.70299 10.661 7.99511 10.661V10.661Z" fill="#C86DCA"/>
<path d="M12.2625 4.69126C12.7915 4.69126 13.2203 4.26244 13.2203 3.73346C13.2203 3.20448 12.7915 2.77567 12.2625 2.77567C11.7335 2.77567 11.3047 3.20448 11.3047 3.73346C11.3047 4.26244 11.7335 4.69126 12.2625 4.69126Z" fill="#C86DCA"/>
<path d="M15.5762 2.75966C15.3705 2.2285 15.0562 1.74614 14.6533 1.34346C14.2505 0.940769 13.768 0.626629 13.2368 0.421146C12.6151 0.187789 11.9584 0.0616092 11.2945 0.0479786C10.4389 0.0106618 10.1679 0 7.99822 0C5.82852 0 5.55042 -8.93673e-08 4.70191 0.0479786C4.03855 0.0609123 3.38228 0.187118 2.76144 0.421146C2.23006 0.62639 1.74746 0.940445 1.34459 1.34316C0.941718 1.74588 0.62748 2.22836 0.422035 2.75966C0.188631 3.38126 0.0627406 4.03806 0.0497557 4.70191C0.0115504 5.55664 0 5.82763 0 7.99822C0 10.1679 -6.6198e-09 10.4442 0.0497557 11.2945C0.0630831 11.9591 0.188361 12.6148 0.422035 13.2377C0.628057 13.7688 0.9426 14.2511 1.34557 14.6537C1.74853 15.0564 2.23107 15.3706 2.76233 15.5762C3.38199 15.8189 4.03854 15.9541 4.70369 15.976C5.55931 16.0133 5.8303 16.0249 8 16.0249C10.1697 16.0249 10.4478 16.0249 11.2963 15.976C11.9601 15.9625 12.6168 15.8366 13.2386 15.6037C13.7697 15.3978 14.252 15.0834 14.6548 14.6806C15.0576 14.2778 15.372 13.7954 15.578 13.2643C15.8116 12.6424 15.9369 11.9867 15.9502 11.3221C15.9884 10.4673 16 10.1964 16 8.02577C16 5.85518 16 5.57974 15.9502 4.72945C15.9399 4.05622 15.8134 3.38983 15.5762 2.75966V2.75966ZM14.494 11.2288C14.4883 11.7408 14.3948 12.2481 14.2177 12.7286C14.0843 13.0741 13.88 13.3878 13.618 13.6496C13.356 13.9115 13.0422 14.1156 12.6966 14.2488C12.2214 14.4251 11.7196 14.5186 11.2128 14.5251C10.3687 14.5642 10.1306 14.574 7.96624 14.574C5.80009 14.574 5.57885 14.574 4.71879 14.5251C4.21229 14.5189 3.71064 14.4254 3.2359 14.2488C2.8891 14.1164 2.57397 13.9127 2.31088 13.6508C2.04778 13.3889 1.84259 13.0747 1.70857 12.7286C1.53394 12.2533 1.44053 11.752 1.43225 11.2457C1.39405 10.4016 1.38516 10.1635 1.38516 7.99911C1.38516 5.83385 1.38516 5.61262 1.43225 4.75167C1.438 4.23991 1.53146 3.73294 1.70857 3.25278C1.97956 2.55175 2.53487 2 3.2359 1.73167C3.71087 1.55588 4.21237 1.46243 4.71879 1.45535C5.56375 1.41715 5.80098 1.40649 7.96624 1.40649C10.1315 1.40649 10.3536 1.40649 11.2128 1.45535C11.7196 1.46145 12.2216 1.55493 12.6966 1.73167C13.0421 1.86519 13.356 2.06948 13.6179 2.33144C13.8799 2.59339 14.0842 2.90722 14.2177 3.25278C14.3923 3.72808 14.4857 4.22937 14.494 4.73567C14.5322 5.58063 14.542 5.81786 14.542 7.98312C14.542 10.1475 14.542 10.3803 14.5038 11.2297H14.494V11.2288Z" fill="#C86DCA"/>
</svg>
