<svg width="33" height="34" viewBox="0 0 33 34" fill="none" xmlns="http://www.w3.org/2000/svg">
<g filter="url(#filter0_d_745:6)">
<path fill-rule="evenodd" clip-rule="evenodd" d="M16.6492 20.5521C20.6257 20.5521 23.8492 17.3075 23.8492 13.305C23.8492 9.3026 20.6257 6.05798 16.6492 6.05798C12.6728 6.05798 9.44922 9.3026 9.44922 13.305C9.44922 17.3075 12.6728 20.5521 16.6492 20.5521Z" fill="white"/>
</g>
<path fill-rule="evenodd" clip-rule="evenodd" d="M16.6492 20.5521C20.6257 20.5521 23.8492 17.3075 23.8492 13.305C23.8492 9.3026 20.6257 6.05798 16.6492 6.05798C12.6728 6.05798 9.44922 9.3026 9.44922 13.305C9.44922 17.3075 12.6728 20.5521 16.6492 20.5521ZM17.4219 12.808H19.4219V14.558H17.4219V16.558H15.6719V14.558H13.6719V12.808H15.6719V10.808H17.4219V12.808Z" fill="#99877D"/>
<defs>
<filter id="filter0_d_745:6" x="0.449219" y="0.657983" width="32.3984" height="32.4941" filterUnits="userSpaceOnUse" color-interpolation-filters="sRGB">
<feFlood flood-opacity="0" result="BackgroundImageFix"/>
<feColorMatrix in="SourceAlpha" type="matrix" values="0 0 0 0 0 0 0 0 0 0 0 0 0 0 0 0 0 0 127 0" result="hardAlpha"/>
<feOffset dy="3.6"/>
<feGaussianBlur stdDeviation="4.5"/>
<feComposite in2="hardAlpha" operator="out"/>
<feColorMatrix type="matrix" values="0 0 0 0 0 0 0 0 0 0 0 0 0 0 0 0 0 0 0.25 0"/>
<feBlend mode="normal" in2="BackgroundImageFix" result="effect1_dropShadow_745:6"/>
<feBlend mode="normal" in="SourceGraphic" in2="effect1_dropShadow_745:6" result="shape"/>
</filter>
</defs>
</svg>
