<svg width="22" height="22" viewBox="0 0 22 22" fill="none" xmlns="http://www.w3.org/2000/svg">
<rect width="21.5277" height="21.5277" rx="3.91413" fill="#9BD3A7"/>
<path d="M15.5265 13.65H7.56081L7.96076 12.8354L14.6062 12.8233C14.8309 12.8233 15.0235 12.6628 15.0636 12.4408L15.9839 7.28949C16.008 7.15439 15.9719 7.01527 15.8836 6.9096C15.84 6.85759 15.7856 6.8157 15.7241 6.78682C15.6627 6.75795 15.5957 6.74279 15.5278 6.74239L7.0739 6.7143L7.00167 6.37454C6.95619 6.15784 6.7609 6 6.53885 6H4.47219C4.34696 6 4.22685 6.04975 4.1383 6.1383C4.04975 6.22685 4 6.34696 4 6.47219C4 6.59742 4.04975 6.71752 4.1383 6.80608C4.22685 6.89463 4.34696 6.94438 4.47219 6.94438H6.15628L6.47197 8.44521L7.24914 12.208L6.24858 13.8413C6.19662 13.9114 6.16532 13.9947 6.15823 14.0817C6.15114 14.1687 6.16853 14.2559 6.20845 14.3335C6.28871 14.4927 6.45056 14.593 6.62981 14.593H7.46985C7.29076 14.8309 7.19403 15.1206 7.19429 15.4183C7.19429 16.1755 7.80961 16.7908 8.56671 16.7908C9.32382 16.7908 9.93914 16.1755 9.93914 15.4183C9.93914 15.1201 9.84015 14.8298 9.66358 14.593H11.8185C11.6394 14.8309 11.5427 15.1206 11.543 15.4183C11.543 16.1755 12.1583 16.7908 12.9154 16.7908C13.6725 16.7908 14.2878 16.1755 14.2878 15.4183C14.2878 15.1201 14.1888 14.8298 14.0123 14.593H15.5278C15.7873 14.593 16 14.3817 16 14.1208C15.9992 13.9957 15.949 13.876 15.8603 13.7878C15.7716 13.6996 15.6516 13.6501 15.5265 13.65ZM7.27054 7.6453L14.9727 7.67072L14.2183 11.895L8.1681 11.9057L7.27054 7.6453ZM8.56671 15.841C8.33396 15.841 8.14402 15.6511 8.14402 15.4183C8.14402 15.1856 8.33396 14.9957 8.56671 14.9957C8.79946 14.9957 8.98941 15.1856 8.98941 15.4183C8.98941 15.5305 8.94488 15.638 8.86561 15.7172C8.78633 15.7965 8.67882 15.841 8.56671 15.841ZM12.9154 15.841C12.6826 15.841 12.4927 15.6511 12.4927 15.4183C12.4927 15.1856 12.6826 14.9957 12.9154 14.9957C13.1481 14.9957 13.3381 15.1856 13.3381 15.4183C13.3381 15.5305 13.2936 15.638 13.2143 15.7172C13.135 15.7965 13.0275 15.841 12.9154 15.841Z" fill="#2C6F27"/>
</svg>
