<svg width="14" height="18" viewBox="0 0 14 18" fill="none" xmlns="http://www.w3.org/2000/svg">
<path d="M10.2226 9.75595C11.1847 9.75595 12.1073 10.1381 12.7876 10.8184C13.4678 11.4987 13.85 12.4213 13.85 13.3833C13.85 14.3454 13.4678 15.268 12.7876 15.9483C12.1073 16.6285 11.1847 17.0107 10.2226 17.0107C9.26058 17.0107 8.33794 16.6285 7.65767 15.9483C6.97741 15.268 6.59524 14.3454 6.59524 13.3833C6.59524 12.4213 6.97741 11.4987 7.65767 10.8184C8.33794 10.1381 9.26058 9.75595 10.2226 9.75595ZM6.59524 0.6875C7.22838 0.687443 7.83743 0.930206 8.29693 1.36578C8.75643 1.80136 9.03139 2.39657 9.06516 3.02881L9.06845 3.16071H12.6958C12.8212 3.16075 12.9418 3.20836 13.0334 3.29392C13.1249 3.37948 13.1806 3.49661 13.1892 3.62164C13.1977 3.74668 13.1585 3.87029 13.0794 3.96751C13.0003 4.06473 12.8873 4.1283 12.7631 4.14538L12.6958 4.15H11.9974L11.5793 9.31539C11.2629 9.21 10.9353 9.14204 10.6032 9.11292L11.0055 4.15H2.185L2.98369 13.998C3.01384 14.3696 3.18278 14.7163 3.45688 14.969C3.73098 15.2217 4.09017 15.362 4.463 15.3619L6.41915 15.3626C6.60843 15.726 6.8485 16.059 7.12945 16.3519L4.463 16.3512C3.84162 16.3512 3.243 16.1174 2.7862 15.6961C2.3294 15.2749 2.0479 14.6972 1.9977 14.0778L1.19242 4.15H0.494643C0.375112 4.15 0.259627 4.10671 0.169544 4.02814C0.0794601 3.94958 0.0208728 3.84105 0.00461665 3.72263L0 3.65536C5.04067e-06 3.53583 0.043293 3.42034 0.121858 3.33026C0.200424 3.24017 0.308951 3.18159 0.427371 3.16533L0.494643 3.16071H4.12202C4.12202 2.50478 4.38259 1.87571 4.84641 1.41189C5.31023 0.94807 5.9393 0.6875 6.59524 0.6875V0.6875ZM8.58964 11.7504C8.52782 11.8122 8.49309 11.8961 8.49309 11.9835C8.49309 12.0709 8.52782 12.1548 8.58964 12.2166L9.75634 13.384L8.59096 14.5487C8.52904 14.6105 8.49422 14.6944 8.49415 14.782C8.49409 14.8695 8.52879 14.9534 8.59063 15.0153C8.65246 15.0772 8.73636 15.1121 8.82387 15.1121C8.91137 15.1122 8.99532 15.0775 9.05724 15.0157L10.2226 13.8503L11.39 15.017C11.4204 15.0485 11.4568 15.0736 11.497 15.0909C11.5372 15.1082 11.5805 15.1173 11.6243 15.1176C11.6681 15.118 11.7115 15.1097 11.752 15.0931C11.7926 15.0765 11.8294 15.052 11.8603 15.0211C11.8913 14.9901 11.9158 14.9533 11.9324 14.9128C11.949 14.8722 11.9573 14.8288 11.9569 14.785C11.9565 14.7412 11.9474 14.698 11.9302 14.6577C11.9129 14.6175 11.8878 14.5811 11.8563 14.5507L10.6896 13.3833L11.8576 12.216C11.9176 12.1538 11.9509 12.0705 11.9501 11.984C11.9494 11.8976 11.9147 11.8149 11.8536 11.7537C11.7924 11.6926 11.7097 11.6579 11.6233 11.6571C11.5368 11.6564 11.4535 11.6896 11.3913 11.7497L10.2233 12.9171L9.05592 11.7497C8.99408 11.6879 8.91022 11.6531 8.82278 11.6531C8.73534 11.6531 8.65148 11.6879 8.58964 11.7497V11.7504ZM6.59524 1.67679C6.21923 1.67674 5.85722 1.81944 5.58237 2.07604C5.30753 2.33264 5.14034 2.68402 5.11461 3.05915L5.11131 3.16071H8.07917L8.07587 3.05915C8.05013 2.68402 7.88295 2.33264 7.6081 2.07604C7.33326 1.81944 6.97125 1.67674 6.59524 1.67679V1.67679Z" fill="black"/>
</svg>
