<svg width="16" height="20" viewBox="0 0 16 20" fill="none" xmlns="http://www.w3.org/2000/svg">
<path d="M11.625 11C12.719 11 13.7682 11.4346 14.5418 12.2082C15.3154 12.9818 15.75 14.031 15.75 15.125C15.75 16.219 15.3154 17.2682 14.5418 18.0418C13.7682 18.8154 12.719 19.25 11.625 19.25C10.531 19.25 9.48177 18.8154 8.70818 18.0418C7.9346 17.2682 7.5 16.219 7.5 15.125C7.5 14.031 7.9346 12.9818 8.70818 12.2082C9.48177 11.4346 10.531 11 11.625 11ZM7.5 0.6875C8.22 0.687435 8.9126 0.963502 9.43514 1.45883C9.95768 1.95416 10.2704 2.63103 10.3088 3.35L10.3125 3.5H14.4375C14.58 3.50004 14.7172 3.55418 14.8213 3.65148C14.9255 3.74878 14.9888 3.88197 14.9985 4.02416C15.0082 4.16635 14.9636 4.30692 14.8737 4.41747C14.7837 4.52803 14.6552 4.60032 14.514 4.61975L14.4375 4.625H13.6432L13.1677 10.499C12.808 10.3791 12.4355 10.3019 12.0577 10.2687L12.5153 4.625H2.48475L3.393 15.824C3.42729 16.2466 3.6194 16.6408 3.93111 16.9282C4.24281 17.2155 4.65128 17.3751 5.07525 17.375L7.29975 17.3757C7.515 17.789 7.788 18.1677 8.1075 18.5007L5.07525 18.5C4.36863 18.5 3.68789 18.2341 3.16843 17.7551C2.64896 17.2761 2.32884 16.6191 2.27175 15.9147L1.356 4.625H0.5625C0.426572 4.62499 0.295244 4.57577 0.192802 4.48642C0.0903607 4.39708 0.0237362 4.27367 0.00524998 4.139L0 4.0625C5.73217e-06 3.92657 0.0492322 3.79524 0.138575 3.6928C0.227919 3.59036 0.351335 3.52374 0.486 3.50525L0.5625 3.5H4.6875C4.6875 2.75408 4.98382 2.03871 5.51126 1.51126C6.03871 0.983816 6.75408 0.6875 7.5 0.6875ZM9.768 13.268C9.6977 13.3383 9.65821 13.4337 9.65821 13.5331C9.65821 13.6326 9.6977 13.7279 9.768 13.7983L11.0947 15.1257L9.7695 16.4503C9.69908 16.5206 9.65949 16.616 9.65942 16.7155C9.65935 16.815 9.69881 16.9105 9.76912 16.9809C9.83944 17.0513 9.93485 17.0909 10.0344 17.091C10.1339 17.091 10.2293 17.0516 10.2997 16.9813L11.625 15.656L12.9525 16.9827C12.9871 17.0186 13.0285 17.0471 13.0742 17.0668C13.12 17.0864 13.1692 17.0968 13.219 17.0972C13.2688 17.0977 13.3181 17.0882 13.3642 17.0693C13.4103 17.0505 13.4522 17.0226 13.4874 16.9874C13.5226 16.9522 13.5505 16.9103 13.5693 16.8642C13.5882 16.8181 13.5977 16.7688 13.5972 16.719C13.5968 16.6692 13.5864 16.62 13.5668 16.5742C13.5471 16.5285 13.5186 16.4871 13.4827 16.4525L12.156 15.125L13.4843 13.7975C13.5526 13.7268 13.5904 13.632 13.5895 13.5337C13.5886 13.4354 13.5492 13.3413 13.4797 13.2718C13.4102 13.2023 13.3161 13.1629 13.2178 13.162C13.1195 13.1611 13.0247 13.1989 12.954 13.2673L11.6257 14.5947L10.2983 13.2673C10.2279 13.1969 10.1326 13.1575 10.0331 13.1575C9.93369 13.1575 9.83832 13.1969 9.768 13.2673V13.268ZM7.5 1.8125C7.0724 1.81245 6.66073 1.97472 6.34819 2.26653C6.03564 2.55833 5.84552 2.95791 5.81625 3.3845L5.8125 3.5H9.1875L9.18375 3.3845C9.15448 2.95791 8.96436 2.55833 8.65182 2.26653C8.33927 1.97472 7.9276 1.81245 7.5 1.8125Z" fill="white"/>
</svg>
