<svg width="22" height="22" viewBox="0 0 22 22" fill="none" xmlns="http://www.w3.org/2000/svg">
<rect width="21.5277" height="21.5277" rx="3.91413" fill="#FFDC83"/>
<path d="M11.2652 10.507C10.0112 10.181 9.60788 9.84402 9.60788 9.31919C9.60788 8.71701 10.1659 8.29715 11.0995 8.29715C12.0829 8.29715 12.4475 8.76673 12.4806 9.4573H13.7016C13.6629 8.50708 13.0828 7.6342 11.9282 7.35245V6.14258H10.2708V7.33588C9.19906 7.56791 8.33723 8.264 8.33723 9.33023C8.33723 10.6064 9.39242 11.2417 10.9338 11.6119C12.3149 11.9433 12.5911 12.4295 12.5911 12.9433C12.5911 13.3245 12.3204 13.9322 11.0995 13.9322C9.96145 13.9322 9.51396 13.4239 9.45319 12.772H8.23779C8.30409 13.9819 9.21011 14.6614 10.2708 14.8879V16.0867H11.9282V14.899C13.0055 14.6946 13.8618 14.0703 13.8618 12.9378C13.8618 11.3688 12.5193 10.8329 11.2652 10.507Z" fill="#9E6B1E"/>
<rect x="4.58402" y="4.58402" width="12.832" height="12.832" rx="6.41598" stroke="#9E6B1E" stroke-width="0.831967"/>
</svg>
