<svg width="18" height="18" viewBox="0 0 18 18" fill="none" xmlns="http://www.w3.org/2000/svg">
<g clip-path="url(#clip0)">
<path d="M7.9381 2.95484C8.99108 2.95388 10.0207 3.26525 10.8967 3.84955C11.7727 4.43385 12.4557 5.26484 12.8593 6.23739C13.2629 7.20995 13.369 8.28036 13.1642 9.31322C12.9594 10.3461 12.4528 11.295 11.7085 12.0399C10.9643 12.7848 10.0159 13.2923 8.9832 13.498C7.95052 13.7038 6.88001 13.5987 5.90709 13.196C4.93417 12.7932 4.10256 12.111 3.51746 11.2355C2.93235 10.3601 2.62004 9.33074 2.62004 8.27776C2.62643 6.86884 3.18862 5.51937 4.18443 4.52265C5.18024 3.52593 6.52919 2.96251 7.9381 2.95484V2.95484ZM7.9381 1.95831C6.68823 1.95831 5.46643 2.32894 4.4272 3.02333C3.38798 3.71772 2.578 4.70468 2.09969 5.85941C1.62139 7.01414 1.49624 8.28477 1.74008 9.51062C1.98392 10.7365 2.58579 11.8625 3.46958 12.7463C4.35337 13.6301 5.47939 14.2319 6.70524 14.4758C7.93109 14.7196 9.20172 14.5945 10.3564 14.1162C11.5112 13.6379 12.4981 12.8279 13.1925 11.7887C13.8869 10.7494 14.2575 9.52763 14.2575 8.27776C14.2575 6.60174 13.5917 4.99436 12.4066 3.80924C11.2215 2.62411 9.61412 1.95831 7.9381 1.95831Z" fill="#8E8E8E"/>
<path d="M17.0139 16.6826L13.4312 13.0757L12.741 13.7611L16.3236 17.368C16.3686 17.4134 16.4221 17.4494 16.481 17.474C16.54 17.4987 16.6032 17.5115 16.667 17.5117C16.7309 17.5119 16.7942 17.4996 16.8533 17.4753C16.9124 17.4511 16.9661 17.4155 17.0115 17.3705C17.0568 17.3255 17.0928 17.272 17.1174 17.2131C17.1421 17.1541 17.1549 17.0909 17.1551 17.0271C17.1554 16.9632 17.143 16.8999 17.1188 16.8408C17.0945 16.7817 17.0589 16.7279 17.0139 16.6826Z" fill="#8E8E8E"/>
</g>
<defs>
<clipPath id="clip0">
<rect width="17.5" height="17.5" fill="white" transform="translate(0 0.5)"/>
</clipPath>
</defs>
</svg>
