<svg width="19" height="21" viewBox="0 0 19 21" fill="none" xmlns="http://www.w3.org/2000/svg">
<path d="M15.8152 14.8561C15.0143 14.8561 14.2918 15.1674 13.744 15.6684L6.23117 11.287C6.28937 11.0491 6.32606 10.8011 6.32606 10.5481C6.32606 10.295 6.28937 10.0483 6.23117 9.81046L13.6643 5.47204C14.2463 6.02037 15.0156 6.32584 15.8152 6.32606C17.5599 6.32606 18.9782 4.90776 18.9782 3.16303C18.9782 1.4183 17.5599 0 15.8152 0C14.0704 0 12.6521 1.4183 12.6521 3.16303C12.6521 3.41607 12.6888 3.66406 12.747 3.90065L5.31389 8.23906C4.73159 7.69129 3.96249 7.38591 3.16303 7.38505C1.4183 7.38505 0 8.80335 0 10.5481C0 12.2928 1.4183 13.7111 3.16303 13.7111C3.96261 13.7109 4.73194 13.4054 5.31389 12.8571L12.8267 17.2385C12.7714 17.4647 12.7429 17.6965 12.742 17.9293C12.7422 18.5368 12.9226 19.1305 13.2602 19.6355C13.5978 20.1405 14.0776 20.5341 14.6389 20.7664C15.2002 20.9988 15.8177 21.0595 16.4135 20.9409C17.0093 20.8223 17.5565 20.5298 17.9861 20.1003C18.4156 19.6707 18.7082 19.1235 18.8267 18.5277C18.9453 17.9319 18.8846 17.3143 18.6522 16.7531C18.4199 16.1918 18.0263 15.712 17.5214 15.3744C17.0164 15.0367 16.4226 14.8564 15.8152 14.8561V14.8561Z" fill="#4F4138"/>
</svg>
