<svg width="20" height="20" viewBox="0 0 20 20" fill="none" xmlns="http://www.w3.org/2000/svg">
<path d="M19.625 6.5625C19.625 7.37505 19.465 8.17965 19.154 8.93035C18.8431 9.68106 18.3873 10.3632 17.8127 10.9377C17.2382 11.5123 16.5561 11.9681 15.8054 12.279C15.0547 12.59 14.2501 12.75 13.4375 12.75C12.6249 12.75 11.8203 12.59 11.0696 12.279C10.3189 11.9681 9.63684 11.5123 9.06228 10.9377C8.48771 10.3632 8.03195 9.68106 7.721 8.93035C7.41004 8.17965 7.25 7.37505 7.25 6.5625C7.25 4.92147 7.9019 3.34766 9.06228 2.18728C10.2227 1.0269 11.7965 0.375 13.4375 0.375C15.0785 0.375 16.6523 1.0269 17.8127 2.18728C18.9731 3.34766 19.625 4.92147 19.625 6.5625V6.5625ZM14.125 3.8125C14.125 3.63016 14.0526 3.4553 13.9236 3.32636C13.7947 3.19743 13.6198 3.125 13.4375 3.125C13.2552 3.125 13.0803 3.19743 12.9514 3.32636C12.8224 3.4553 12.75 3.63016 12.75 3.8125V5.875H10.6875C10.5052 5.875 10.3303 5.94743 10.2014 6.07636C10.0724 6.2053 10 6.38016 10 6.5625C10 6.74484 10.0724 6.9197 10.2014 7.04864C10.3303 7.17757 10.5052 7.25 10.6875 7.25H12.75V9.3125C12.75 9.49484 12.8224 9.6697 12.9514 9.79864C13.0803 9.92757 13.2552 10 13.4375 10C13.6198 10 13.7947 9.92757 13.9236 9.79864C14.0526 9.6697 14.125 9.49484 14.125 9.3125V7.25H16.1875C16.3698 7.25 16.5447 7.17757 16.6736 7.04864C16.8026 6.9197 16.875 6.74484 16.875 6.5625C16.875 6.38016 16.8026 6.2053 16.6736 6.07636C16.5447 5.94743 16.3698 5.875 16.1875 5.875H14.125V3.8125ZM15.5 16.875V13.8404C15.9799 13.7043 16.4391 13.5241 16.875 13.3V16.875C16.875 17.6043 16.5853 18.3038 16.0695 18.8195C15.5538 19.3353 14.8543 19.625 14.125 19.625H3.125C2.39565 19.625 1.69618 19.3353 1.18046 18.8195C0.664731 18.3038 0.375 17.6043 0.375 16.875V8.625C0.375 7.89565 0.664731 7.19618 1.18046 6.68046C1.69618 6.16473 2.39565 5.875 3.125 5.875H5.90525C5.86402 6.33241 5.86402 6.79259 5.90525 7.25H3.125C2.76033 7.25 2.41059 7.39487 2.15273 7.65273C1.89487 7.91059 1.75 8.26033 1.75 8.625V9.6425L8.625 13.344L9.373 12.9411C9.846 13.2436 10.3547 13.4939 10.891 13.6864L8.95225 14.7314C8.85192 14.7855 8.7397 14.8139 8.62569 14.8139C8.51168 14.8139 8.39945 14.7855 8.29913 14.7314L1.75 11.2031V16.875C1.75 17.2397 1.89487 17.5894 2.15273 17.8473C2.41059 18.1051 2.76033 18.25 3.125 18.25H14.125C14.4897 18.25 14.8394 18.1051 15.0973 17.8473C15.3551 17.5894 15.5 17.2397 15.5 16.875Z" fill="#99877D"/>
</svg>
