<svg width="16" height="10" viewBox="0 0 16 10" fill="none" xmlns="http://www.w3.org/2000/svg">
<path d="M0.990506 6.602C1.67251 3.327 4.52351 1 7.73051 1C10.9365 1 13.7875 3.327 14.4705 6.602C14.4976 6.73196 14.5751 6.84584 14.6861 6.91861C14.7972 6.99137 14.9326 7.01705 15.0625 6.99C15.1925 6.96295 15.3063 6.88538 15.3791 6.77436C15.4519 6.66334 15.4776 6.52796 15.4505 6.398C14.6735 2.673 11.4235 0 7.73051 0C4.03751 0 0.787506 2.673 0.0105057 6.398C-0.0165464 6.52796 0.00913437 6.66334 0.0818985 6.77436C0.154663 6.88538 0.26855 6.96295 0.398506 6.99C0.528462 7.01705 0.663842 6.99137 0.774863 6.91861C0.885885 6.84584 0.963454 6.73196 0.990506 6.602V6.602Z" fill="black"/>
<path d="M7.73047 3C6.80221 3 5.91197 3.36875 5.2556 4.02513C4.59922 4.6815 4.23047 5.57174 4.23047 6.5C4.23047 7.42826 4.59922 8.3185 5.2556 8.97487C5.91197 9.63125 6.80221 10 7.73047 10C8.65873 10 9.54896 9.63125 10.2053 8.97487C10.8617 8.3185 11.2305 7.42826 11.2305 6.5C11.2305 5.57174 10.8617 4.6815 10.2053 4.02513C9.54896 3.36875 8.65873 3 7.73047 3ZM5.23047 6.5C5.23047 5.83696 5.49386 5.20107 5.9627 4.73223C6.43154 4.26339 7.06743 4 7.73047 4C8.39351 4 9.02939 4.26339 9.49824 4.73223C9.96708 5.20107 10.2305 5.83696 10.2305 6.5C10.2305 7.16304 9.96708 7.79893 9.49824 8.26777C9.02939 8.73661 8.39351 9 7.73047 9C7.06743 9 6.43154 8.73661 5.9627 8.26777C5.49386 7.79893 5.23047 7.16304 5.23047 6.5V6.5Z" fill="black"/>
</svg>
