<svg width="340" height="53" viewBox="0 0 340 53" fill="none" xmlns="http://www.w3.org/2000/svg">
<path d="M18.71 35.6651C22.054 35.6651 24.43 33.9051 24.43 30.9351C24.43 27.6791 21.812 26.8651 19.48 26.1611C17.082 25.4351 16.708 24.9511 16.708 24.2471C16.708 23.6311 17.258 23.0811 18.358 23.0811C19.766 23.0811 20.492 23.7631 21.02 24.8631L23.99 23.1251C22.868 20.8591 20.888 19.6491 18.358 19.6491C15.696 19.6491 13.188 21.3651 13.188 24.3351C13.188 27.2831 15.432 28.3831 17.72 29.0211C20.03 29.6591 20.91 30.0331 20.91 30.9791C20.91 31.5731 20.492 32.2331 18.82 32.2331C17.082 32.2331 16.136 31.3751 15.586 30.0991L12.55 31.8591C13.408 34.1251 15.476 35.6651 18.71 35.6651ZM33.4297 35.6651C37.8517 35.6651 41.4377 32.1891 41.4377 27.6571C41.4377 23.1251 37.8517 19.6491 33.4297 19.6491C29.0077 19.6491 25.4217 23.1251 25.4217 27.6571C25.4217 32.1891 29.0077 35.6651 33.4297 35.6651ZM33.4297 32.2331C30.9217 32.2331 28.9417 30.4071 28.9417 27.6571C28.9417 24.9071 30.9217 23.0811 33.4297 23.0811C35.9377 23.0811 37.9177 24.9071 37.9177 27.6571C37.9177 30.4071 35.9377 32.2331 33.4297 32.2331ZM51.5156 35.3571H55.2996L52.0216 29.7031C53.7156 28.8451 54.8596 27.1291 54.8596 25.2371C54.8596 22.3111 52.5056 19.9571 49.5796 19.9571H43.4196V35.3571H46.9396V30.2971H48.6116L51.5156 35.3571ZM46.9396 23.2571H49.5796C50.5476 23.2571 51.3396 24.1151 51.3396 25.2371C51.3396 26.3591 50.5476 27.2171 49.5796 27.2171H46.9396V23.2571ZM66.9725 19.9571H55.5325V23.3451H59.4925V35.3571H63.0125V23.3451H66.9725V19.9571ZM72.0334 31.9691V29.2411H77.5334V25.8971H72.0334V23.3451H78.0834V19.9571H68.5134V35.3571H78.1934V31.9691H72.0334ZM87.42 35.6651C91.842 35.6651 95.428 32.1891 95.428 27.6571C95.428 23.1251 91.842 19.6491 87.42 19.6491C82.998 19.6491 79.412 23.1251 79.412 27.6571C79.412 32.1891 82.998 35.6651 87.42 35.6651ZM87.42 32.2331C84.912 32.2331 82.932 30.4071 82.932 27.6571C82.932 24.9071 84.912 23.0811 87.42 23.0811C89.928 23.0811 91.908 24.9071 91.908 27.6571C91.908 30.4071 89.928 32.2331 87.42 32.2331Z" fill="#FFFCFC"/>
<path d="M4.4 13.8457C2.76571 13.8457 1.41429 15.1971 1.41429 16.8314C1.41429 18.4657 2.76571 19.8171 4.4 19.8171C6.03429 19.8171 7.38571 18.4657 7.38571 16.8314C7.38571 15.1971 6.03429 13.8457 4.4 13.8457ZM2.51429 22.1429L1.57143 30V36.2857H7.22857V30L6.28571 22.1429H2.51429Z" fill="#FFFCFC"/>
<path d="M332.514 27.5H336.286L337.229 19.6428V13.3571H331.571V19.6428L332.514 27.5ZM334.4 35.7971C336.034 35.7971 337.386 34.4457 337.386 32.8114C337.386 31.1771 336.034 29.8257 334.4 29.8257C332.766 29.8257 331.414 31.1771 331.414 32.8114C331.414 34.4457 332.766 35.7971 334.4 35.7971Z" fill="#FFFCFC"/>
<path d="M201.71 35.6651C205.054 35.6651 207.43 33.9051 207.43 30.9351C207.43 27.6791 204.812 26.8651 202.48 26.1611C200.082 25.4351 199.708 24.9511 199.708 24.2471C199.708 23.6311 200.258 23.0811 201.358 23.0811C202.766 23.0811 203.492 23.7631 204.02 24.8631L206.99 23.1251C205.868 20.8591 203.888 19.6491 201.358 19.6491C198.696 19.6491 196.188 21.3651 196.188 24.3351C196.188 27.2831 198.432 28.3831 200.72 29.0211C203.03 29.6591 203.91 30.0331 203.91 30.9791C203.91 31.5731 203.492 32.2331 201.82 32.2331C200.082 32.2331 199.136 31.3751 198.586 30.0991L195.55 31.8591C196.408 34.1251 198.476 35.6651 201.71 35.6651ZM212.602 31.9691V29.2411H218.102V25.8971H212.602V23.3451H218.652V19.9571H209.082V35.3571H218.762V31.9691H212.602ZM235.886 26.7771H228.164V29.8571H232.278C231.728 31.3311 230.386 32.2331 228.34 32.2331C225.348 32.2331 223.5 30.3191 223.5 27.7011C223.5 24.9951 225.436 23.0811 228.032 23.0811C229.77 23.0811 231.156 23.8731 231.794 24.8851L234.786 23.1691C233.488 21.1011 231.002 19.6491 228.054 19.6491C223.522 19.6491 219.98 23.2131 219.98 27.6791C219.98 32.1011 223.456 35.6651 228.296 35.6651C232.608 35.6651 235.886 32.8051 235.886 28.0971V26.7771ZM243.593 35.6651C246.981 35.6651 249.533 33.6851 249.533 30.3851V19.9571H246.013V30.0771C246.013 31.2431 245.463 32.2331 243.593 32.2331C241.723 32.2331 241.173 31.2431 241.173 30.0771V19.9571H237.653V30.3851C237.653 33.6851 240.205 35.6651 243.593 35.6651ZM252.072 19.9571V35.3571H255.592V19.9571H252.072ZM264.398 19.9571H258.238V35.3571H264.398C268.644 35.3571 271.878 32.0131 271.878 27.6571C271.878 23.3011 268.644 19.9571 264.398 19.9571ZM264.398 31.9691H261.758V23.3451H264.398C266.818 23.3451 268.49 25.0171 268.49 27.6571C268.49 30.2971 266.818 31.9691 264.398 31.9691ZM281.205 35.6651C285.627 35.6651 289.213 32.1891 289.213 27.6571C289.213 23.1251 285.627 19.6491 281.205 19.6491C276.783 19.6491 273.197 23.1251 273.197 27.6571C273.197 32.1891 276.783 35.6651 281.205 35.6651ZM281.205 32.2331C278.697 32.2331 276.717 30.4071 276.717 27.6571C276.717 24.9071 278.697 23.0811 281.205 23.0811C283.713 23.0811 285.693 24.9071 285.693 27.6571C285.693 30.4071 283.713 32.2331 281.205 32.2331ZM299.291 35.3571H303.075L299.797 29.7031C301.491 28.8451 302.635 27.1291 302.635 25.2371C302.635 22.3111 300.281 19.9571 297.355 19.9571H291.195V35.3571H294.715V30.2971H296.387L299.291 35.3571ZM294.715 23.2571H297.355C298.323 23.2571 299.115 24.1151 299.115 25.2371C299.115 26.3591 298.323 27.2171 297.355 27.2171H294.715V23.2571ZM308.25 31.9691V29.2411H313.75V25.8971H308.25V23.3451H314.3V19.9571H304.73V35.3571H314.41V31.9691H308.25ZM321.786 35.6651C325.13 35.6651 327.506 33.9051 327.506 30.9351C327.506 27.6791 324.888 26.8651 322.556 26.1611C320.158 25.4351 319.784 24.9511 319.784 24.2471C319.784 23.6311 320.334 23.0811 321.434 23.0811C322.842 23.0811 323.568 23.7631 324.096 24.8631L327.066 23.1251C325.944 20.8591 323.964 19.6491 321.434 19.6491C318.772 19.6491 316.264 21.3651 316.264 24.3351C316.264 27.2831 318.508 28.3831 320.796 29.0211C323.106 29.6591 323.986 30.0331 323.986 30.9791C323.986 31.5731 323.568 32.2331 321.896 32.2331C320.158 32.2331 319.212 31.3751 318.662 30.0991L315.626 31.8591C316.484 34.1251 318.552 35.6651 321.786 35.6651Z" fill="#FFFCFC"/>
<path d="M106.705 14.4288L99.3992 17.0638L100.956 22.5335L105.907 21.1761V42.376H112.295V14.4288H106.705ZM127.679 42.9349C134.905 42.9349 139.057 37.0261 139.057 28.4024C139.057 19.7787 134.905 13.8699 127.679 13.8699C120.452 13.8699 116.3 19.7787 116.3 28.4024C116.3 37.0261 120.452 42.9349 127.679 42.9349ZM127.679 36.7067C124.325 36.7067 122.688 33.7922 122.688 28.4024C122.688 23.0126 124.325 20.0981 127.679 20.0981C131.032 20.0981 132.669 23.0126 132.669 28.4024C132.669 33.7922 131.032 36.7067 127.679 36.7067ZM152.826 42.9349C160.053 42.9349 164.205 37.0261 164.205 28.4024C164.205 19.7787 160.053 13.8699 152.826 13.8699C145.6 13.8699 141.448 19.7787 141.448 28.4024C141.448 37.0261 145.6 42.9349 152.826 42.9349ZM152.826 36.7067C149.473 36.7067 147.836 33.7922 147.836 28.4024C147.836 23.0126 149.473 20.0981 152.826 20.0981C156.18 20.0981 157.817 23.0126 157.817 28.4024C157.817 33.7922 156.18 36.7067 152.826 36.7067ZM177.974 42.9349C185.2 42.9349 189.353 37.0261 189.353 28.4024C189.353 19.7787 185.2 13.8699 177.974 13.8699C170.748 13.8699 166.596 19.7787 166.596 28.4024C166.596 37.0261 170.748 42.9349 177.974 42.9349ZM177.974 36.7067C174.62 36.7067 172.984 33.7922 172.984 28.4024C172.984 23.0126 174.62 20.0981 177.974 20.0981C181.328 20.0981 182.965 23.0126 182.965 28.4024C182.965 33.7922 181.328 36.7067 177.974 36.7067Z" fill="#FFFCFC"/>
</svg>
