<svg width="534" height="70" viewBox="0 0 534 70" fill="none" xmlns="http://www.w3.org/2000/svg">
<path d="M29.6256 46.4418C34.4226 46.4418 37.831 43.9171 37.831 39.6566C37.831 34.9858 34.0754 33.8181 30.7301 32.8082C27.2902 31.7668 26.7537 31.0725 26.7537 30.0626C26.7537 29.1789 27.5427 28.39 29.1206 28.39C31.1404 28.39 32.1819 29.3683 32.9393 30.9462L37.1998 28.4531C35.5903 25.2025 32.7499 23.4667 29.1206 23.4667C25.302 23.4667 21.7042 25.9283 21.7042 30.1888C21.7042 34.4178 24.9232 35.9957 28.2054 36.9109C31.5191 37.8262 32.7815 38.3627 32.7815 39.7197C32.7815 40.5718 32.1819 41.5186 29.7834 41.5186C27.2902 41.5186 25.9331 40.2878 25.1442 38.4573L20.789 40.9821C22.0198 44.2327 24.9864 46.4418 29.6256 46.4418ZM51.6879 46.4418C58.0313 46.4418 63.1755 41.4555 63.1755 34.9543C63.1755 28.4531 58.0313 23.4667 51.6879 23.4667C45.3445 23.4667 40.2004 28.4531 40.2004 34.9543C40.2004 41.4555 45.3445 46.4418 51.6879 46.4418ZM51.6879 41.5186C48.0902 41.5186 45.2498 38.8992 45.2498 34.9543C45.2498 31.0094 48.0902 28.39 51.6879 28.39C55.2857 28.39 58.126 31.0094 58.126 34.9543C58.126 38.8992 55.2857 41.5186 51.6879 41.5186ZM78.5791 46H84.0073L79.305 37.8893C81.735 36.6585 83.3761 34.1968 83.3761 31.4828C83.3761 27.2854 79.9993 23.9085 75.8019 23.9085H66.9653V46H72.0148V38.7414H74.4133L78.5791 46ZM72.0148 28.6424H75.8019C77.1905 28.6424 78.3266 29.8732 78.3266 31.4828C78.3266 33.0923 77.1905 34.3231 75.8019 34.3231H72.0148V28.6424ZM101.699 23.9085H85.2881V28.7687H90.9688V46H96.0183V28.7687H101.699V23.9085ZM109.906 41.1399V37.2265H117.795V32.4295H109.906V28.7687H118.584V23.9085H104.856V46H118.742V41.1399H109.906ZM132.925 46.4418C139.268 46.4418 144.412 41.4555 144.412 34.9543C144.412 28.4531 139.268 23.4667 132.925 23.4667C126.581 23.4667 121.437 28.4531 121.437 34.9543C121.437 41.4555 126.581 46.4418 132.925 46.4418ZM132.925 41.5186C129.327 41.5186 126.487 38.8992 126.487 34.9543C126.487 31.0094 129.327 28.39 132.925 28.39C136.522 28.39 139.363 31.0094 139.363 34.9543C139.363 38.8992 136.522 41.5186 132.925 41.5186Z" fill="#FFFCFC"/>
<path d="M6.31185 19.8265C3.96745 19.8265 2.02881 21.7651 2.02881 24.1095C2.02881 26.4539 3.96745 28.3926 6.31185 28.3926C8.65625 28.3926 10.5949 26.4539 10.5949 24.1095C10.5949 21.7651 8.65625 19.8265 6.31185 19.8265ZM3.60677 31.7288L2.25423 43V52.0169H10.3695V43L9.01692 31.7288H3.60677Z" fill="#FFFCFC"/>
<path d="M524.607 39.7288H530.017L531.369 28.4577V19.4408H523.254V28.4577L524.607 39.7288ZM527.312 51.6312C529.656 51.6312 531.595 49.6925 531.595 47.3481C531.595 45.0037 529.656 43.0651 527.312 43.0651C524.967 43.0651 523.029 45.0037 523.029 47.3481C523.029 49.6925 524.967 51.6312 527.312 51.6312Z" fill="#FFFCFC"/>
<path d="M324.626 47.4418C329.423 47.4418 332.831 44.9171 332.831 40.6566C332.831 35.9858 329.075 34.8181 325.73 33.8082C322.29 32.7668 321.754 32.0725 321.754 31.0626C321.754 30.1789 322.543 29.39 324.121 29.39C326.14 29.39 327.182 30.3683 327.939 31.9462L332.2 29.4531C330.59 26.2025 327.75 24.4667 324.121 24.4667C320.302 24.4667 316.704 26.9283 316.704 31.1888C316.704 35.4178 319.923 36.9957 323.205 37.9109C326.519 38.8262 327.781 39.3627 327.781 40.7197C327.781 41.5718 327.182 42.5186 324.783 42.5186C322.29 42.5186 320.933 41.2878 320.144 39.4573L315.789 41.9821C317.02 45.2327 319.986 47.4418 324.626 47.4418ZM341.197 42.1399V38.2265H349.086V33.4295H341.197V29.7687H349.875V24.9085H336.147V47H350.033V42.1399H341.197ZM375.545 34.6919H364.468V39.1102H370.37C369.581 41.2247 367.656 42.5186 364.721 42.5186C360.429 42.5186 357.778 39.7729 357.778 36.0174C357.778 32.1356 360.555 29.39 364.279 29.39C366.772 29.39 368.76 30.5261 369.675 31.9778L373.967 29.5162C372.105 26.5496 368.539 24.4667 364.31 24.4667C357.809 24.4667 352.728 29.5793 352.728 35.9858C352.728 42.3292 357.714 47.4418 364.657 47.4418C370.843 47.4418 375.545 43.3391 375.545 36.5855V34.6919ZM387.548 47.4418C392.408 47.4418 396.069 44.6015 396.069 39.8676V24.9085H391.02V39.4258C391.02 41.0984 390.231 42.5186 387.548 42.5186C384.865 42.5186 384.076 41.0984 384.076 39.4258V24.9085H379.027V39.8676C379.027 44.6015 382.688 47.4418 387.548 47.4418ZM400.657 24.9085V47H405.707V24.9085H400.657ZM419.286 24.9085H410.449V47H419.286C425.377 47 430.016 42.203 430.016 35.9543C430.016 29.7055 425.377 24.9085 419.286 24.9085ZM419.286 42.1399H415.499V29.7687H419.286C422.757 29.7687 425.156 32.1672 425.156 35.9543C425.156 39.7414 422.757 42.1399 419.286 42.1399ZM444.343 47.4418C450.686 47.4418 455.83 42.4555 455.83 35.9543C455.83 29.4531 450.686 24.4667 444.343 24.4667C437.999 24.4667 432.855 29.4531 432.855 35.9543C432.855 42.4555 437.999 47.4418 444.343 47.4418ZM444.343 42.5186C440.745 42.5186 437.905 39.8992 437.905 35.9543C437.905 32.0094 440.745 29.39 444.343 29.39C447.941 29.39 450.781 32.0094 450.781 35.9543C450.781 39.8992 447.941 42.5186 444.343 42.5186ZM471.234 47H476.662L471.96 38.8893C474.39 37.6585 476.031 35.1968 476.031 32.4828C476.031 28.2854 472.654 24.9085 468.457 24.9085H459.62V47H464.67V39.7414H467.068L471.234 47ZM464.67 29.6424H468.457C469.845 29.6424 470.981 30.8732 470.981 32.4828C470.981 34.0923 469.845 35.3231 468.457 35.3231H464.67V29.6424ZM485.033 42.1399V38.2265H492.923V33.4295H485.033V29.7687H493.712V24.9085H479.983V47H493.869V42.1399H485.033ZM505.397 47.4418C510.194 47.4418 513.602 44.9171 513.602 40.6566C513.602 35.9858 509.847 34.8181 506.502 33.8082C503.062 32.7668 502.525 32.0725 502.525 31.0626C502.525 30.1789 503.314 29.39 504.892 29.39C506.912 29.39 507.953 30.3683 508.711 31.9462L512.971 29.4531C511.362 26.2025 508.521 24.4667 504.892 24.4667C501.073 24.4667 497.476 26.9283 497.476 31.1888C497.476 35.4178 500.695 36.9957 503.977 37.9109C507.291 38.8262 508.553 39.3627 508.553 40.7197C508.553 41.5718 507.953 42.5186 505.555 42.5186C503.062 42.5186 501.705 41.2878 500.916 39.4573L496.56 41.9821C497.791 45.2327 500.758 47.4418 505.397 47.4418Z" fill="#FFFCFC"/>
<path d="M173.054 14.9095L162.573 18.6895L164.806 26.5357L171.908 24.5885V55H181.072V14.9095H173.054ZM204.858 55.8018C215.224 55.8018 221.18 47.3255 221.18 34.9547C221.18 22.584 215.224 14.1077 204.858 14.1077C194.492 14.1077 188.535 22.584 188.535 34.9547C188.535 47.3255 194.492 55.8018 204.858 55.8018ZM204.858 46.8674C200.047 46.8674 197.699 42.6865 197.699 34.9547C197.699 27.223 200.047 23.0421 204.858 23.0421C209.669 23.0421 212.017 27.223 212.017 34.9547C212.017 42.6865 209.669 46.8674 204.858 46.8674ZM242.651 55.8018C253.017 55.8018 258.973 47.3255 258.973 34.9547C258.973 22.584 253.017 14.1077 242.651 14.1077C232.285 14.1077 226.328 22.584 226.328 34.9547C226.328 47.3255 232.285 55.8018 242.651 55.8018ZM242.651 46.8674C237.84 46.8674 235.492 42.6865 235.492 34.9547C235.492 27.223 237.84 23.0421 242.651 23.0421C247.462 23.0421 249.81 27.223 249.81 34.9547C249.81 42.6865 247.462 46.8674 242.651 46.8674ZM280.444 55.8018C290.81 55.8018 296.766 47.3255 296.766 34.9547C296.766 22.584 290.81 14.1077 280.444 14.1077C270.077 14.1077 264.121 22.584 264.121 34.9547C264.121 47.3255 270.077 55.8018 280.444 55.8018ZM280.444 46.8674C275.633 46.8674 273.285 42.6865 273.285 34.9547C273.285 27.223 275.633 23.0421 280.444 23.0421C285.255 23.0421 287.603 27.223 287.603 34.9547C287.603 42.6865 285.255 46.8674 280.444 46.8674Z" fill="#FFFCFC"/>
</svg>
