<svg width="15" height="18" viewBox="0 0 15 18" fill="none" xmlns="http://www.w3.org/2000/svg">
<path d="M6.25 16.2502H1.25V1.25021H6.25V5.00021C6.25099 5.33143 6.383 5.6488 6.61721 5.883C6.85142 6.11721 7.16878 6.24922 7.5 6.25021H11.25V8.75021H12.5V5.00021C12.5022 4.91807 12.4866 4.83643 12.4542 4.7609C12.4219 4.68538 12.3735 4.61776 12.3125 4.56271L7.9375 0.187712C7.88248 0.126678 7.81486 0.0783065 7.73933 0.0459357C7.6638 0.0135649 7.58215 -0.00203489 7.5 0.000212525H1.25C0.918784 0.00120173 0.601416 0.133215 0.367209 0.367422C0.133003 0.601628 0.000989204 0.918996 0 1.25021V16.2502C0.000989204 16.5814 0.133003 16.8988 0.367209 17.133C0.601416 17.3672 0.918784 17.4992 1.25 17.5002H6.25V16.2502ZM7.5 1.50021L11 5.00021H7.5V1.50021Z" fill="white"/>
<path d="M15 13.75H12.5V11.25H11.25V13.75H8.75V15H11.25V17.5H12.5V15H15V13.75Z" fill="white"/>
</svg>
