<svg width="23" height="22" viewBox="0 0 23 22" fill="none" xmlns="http://www.w3.org/2000/svg">
<rect x="0.564941" y="0.411133" width="21.5277" height="21.5277" rx="3.91413" fill="#D356B0"/>
<path d="M8.9002 9.44026C8.9002 10.0843 9.15606 10.7021 9.6115 11.1575C10.0669 11.6129 10.6846 11.8688 11.3287 11.8688C11.9728 11.8688 12.5905 11.6129 13.046 11.1575C13.5014 10.7021 13.7573 10.0843 13.7573 9.44026C13.7573 8.79617 13.5014 8.17846 13.046 7.72302C12.5905 7.26758 11.9728 7.01172 11.3287 7.01172C10.6846 7.01172 10.0669 7.26758 9.6115 7.72302C9.15606 8.17846 8.9002 8.79617 8.9002 9.44026ZM14.7981 16.032H7.51246C7.42045 16.032 7.3322 15.9955 7.26714 15.9304C7.20208 15.8653 7.16553 15.7771 7.16553 15.6851V14.6443C7.16553 14.1842 7.34829 13.743 7.6736 13.4177C7.99891 13.0924 8.44013 12.9096 8.9002 12.9096H13.7573C14.2173 12.9096 14.6586 13.0924 14.9839 13.4177C15.3092 13.743 15.4919 14.1842 15.4919 14.6443V15.6851C15.4919 15.7771 15.4554 15.8653 15.3903 15.9304C15.3253 15.9955 15.237 16.032 15.145 16.032H14.7981Z" fill="white"/>
</svg>
