<?xml version="1.0" standalone="no"?>
<!DOCTYPE svg PUBLIC "-//W3C//DTD SVG 20010904//EN"
 "http://www.w3.org/TR/2001/REC-SVG-20010904/DTD/svg10.dtd">
<svg version="1.0" xmlns="http://www.w3.org/2000/svg"
 width="200.000000pt" height="200.000000pt" viewBox="0 0 200.000000 200.000000"
 preserveAspectRatio="xMidYMid meet">
<metadata>
Created by potrace 1.14, written by Peter Selinger 2001-2017
</metadata>
<g transform="translate(0.000000,200.000000) scale(0.100000,-0.100000)"
fill="#000000" stroke="none">
<path d="M1515 1844 c-771 -54 -1139 -290 -1244 -800 -26 -121 -43 -443 -39
-704 3 -156 5 -185 18 -185 13 0 16 34 21 220 4 167 9 230 21 261 62 157 159
264 308 338 85 42 187 73 293 91 38 6 54 35 20 35 -36 -1 -190 -39 -257 -64
-151 -57 -282 -167 -349 -292 l-36 -69 -1 72 c0 95 25 280 50 371 121 434 488
648 1187 692 180 11 208 6 219 -36 11 -44 -4 -270 -26 -390 -44 -246 -130
-435 -263 -581 -148 -161 -394 -266 -662 -281 -97 -6 -120 -10 -120 -22 0 -12
15 -14 85 -12 193 7 378 55 519 134 105 59 260 215 320 320 115 206 177 456
182 741 2 105 1 109 -24 135 -24 24 -35 27 -100 28 -39 1 -94 0 -122 -2z"/>
</g>
</svg>
